<?xml version="1.0" encoding="utf-8"?>
<!-- Generator: Adobe Illustrator 22.1.0, SVG Export Plug-In . SVG Version: 6.00 Build 0)  -->
<svg version="1.1" id="Camada_1" xmlns="http://www.w3.org/2000/svg" xmlns:xlink="http://www.w3.org/1999/xlink" x="0px" y="0px"
	 viewBox="0 0 262.6 54" style="enable-background:new 0 0 262.6 54;" xml:space="preserve">
<style type="text/css">
	.st0{fill:#FFFFFF;}
</style>
<g>
	<path class="st0" d="M199.2,47.4L199.2,47.4l0.2,0.1c0.2,0,0.5,0.1,1,0.3c0,0,0-0.1,0.1,0c0.7,0.3,0.4,0.1,0.9,0.2
		c-0.2-0.1-0.4-0.1-0.5-0.2l1.1,0.3c-0.1-0.1-0.2-0.2-0.1-0.2c-0.1-0.1,0.3-0.2,0.5-0.3c-0.2-0.1-0.3-0.1-0.4-0.2c0,0,0.2,0,0.4,0
		l-0.1-0.1l0.1,0.1c0.1,0,0.3,0.1,0.5,0.1c-0.1,0-0.2-0.1-0.1-0.1l-0.7-0.2c0,0,0,0,0,0l-0.2,0l0.1,0.1c0,0-0.1,0-0.1,0
		c-0.2,0-0.2-0.1-0.3-0.1l-0.3,0c-0.2,0.1,0.9,0.3,0.3,0.2l-0.2-0.1c-0.3-0.1-0.6-0.2-0.8-0.1c-0.2-0.2-0.7-0.1-0.7-0.3
		c-0.9-0.4-2.2-0.6-3.1-1c-0.2,0.1-0.2,0.2-0.7,0.2c-0.1,0-0.2-0.1-0.2-0.1l-0.3,0c0.2,0,0.4,0.1,0.4,0.2c-0.5-0.1,0.2,0.1,0.1,0.2
		l-0.6-0.1l0.1,0C197,46.6,198.1,47,199.2,47.4L199.2,47.4z"/>
	<path class="st0" d="M183.1,43.4l0,0.1c-10,0-23.2,1.4-35.4,2.6l0.3-0.5c-3.2,0.6-6.9,1.2-9.9,1.8l1.2-0.1c-1.1,0.4-3.8,0.8-5.5,1
		l0.2-0.1c2.3-0.3-0.2,0,0.8-0.4l0.4-0.1l-0.2,0l-0.4,0.1c0-0.1,0-0.2,0.4-0.2l-0.5,0c-1.2-0.2-1.2-0.4-1.1-0.8
		c-0.3,0.1,0,0.4-1.3,0.4l0.2-0.1l-1.4,0.4l-0.6-0.1c-0.5,0.1-0.8,0.2-1.3,0.3l-0.1,0.2c-2.3,0.2-5.3,0.8-7.6,0.9
		c-0.5,0.3-1.8,0.1-3.1,0.5l0.6,0.2c1.5,0.2,4.8-0.4,7.1-0.5l-0.1,0.1c-0.5,0.1-0.8,0.2-1.4,0.2l-0.1,0.2c1.1,0.7,4.1-0.6,5-0.6
		c1.8,0-1.1,0.6-0.3,0.5c-1.9,0.5,1.7,0.4,2.5,0.6c2.4,0.3,7.4-0.5,10.4-0.9c5-1.1,11.8-1.2,16.5-1.7c2.3-0.2,5.8-1.4,7.3-0.8
		l4.2-0.2l-0.1,0.1c4.2-0.3,8.5-1,12.4-1c1.7,0,2.2-0.4,3,0c3.3,0.3,7.3-0.5,10.4,0c0-0.1,0.5-0.2-0.1-0.3c-1.6-0.2-3.4-0.5-3.5-0.8
		l0.6,0l-1.1-0.3l-0.7,0.1c-0.2-0.1-0.3-0.1-0.3-0.2c-1.2-0.1-2.3-0.4-3.6-0.6C185.5,43.6,184.5,43.6,183.1,43.4"/>
	<path class="st0" d="M112.4,10.2V6.8c0-0.5-0.1-0.9-0.2-1.2c-0.1-0.2-0.4-0.4-0.7-0.4c-0.1,0-0.2-0.1-0.2-0.1c0-0.1,0-0.1,0.1-0.1
		c0.1,0,0.2,0,0.4,0c0.2,0,0.3,0,0.5,0c0.4,0,0.7,0,0.8,0c0.1,0,0.2,0,0.3,0c0.1,0,0.1,0,0.1,0.1c0,0.1,0,0.1-0.1,0.1
		c-0.2,0.1-0.4,0.3-0.5,0.5c-0.1,0.2-0.1,0.6-0.1,1.1v3.3c0,1.2-0.2,2.1-0.7,2.8c-0.3,0.4-0.7,0.7-1.2,1c-0.5,0.2-1.1,0.4-1.6,0.4
		c-0.7,0-1.3-0.1-1.8-0.4c-0.5-0.3-0.9-0.7-1.2-1.2c-0.3-0.6-0.4-1.3-0.4-2.2V7l0-0.4c0-0.5-0.1-0.8-0.2-1c-0.1-0.2-0.4-0.3-0.7-0.4
		c-0.1,0-0.2-0.1-0.2-0.1c0-0.1,0.1-0.2,0.2-0.2c0.1,0,0.2,0,0.4,0c0.2,0,0.3,0,0.4,0l0.5,0h0.5c0,0,0.2,0,0.3,0c0.1,0,0.2,0,0.3,0
		c0.1,0,0.1,0,0.1,0.1c0,0.1-0.1,0.1-0.2,0.2c-0.2,0.1-0.4,0.2-0.5,0.3c-0.1,0.2-0.1,0.5-0.1,0.9l0,0.4v3.3c0,1.1,0.2,1.9,0.5,2.4
		c0.5,0.7,1.2,1,2.3,1c1,0,1.7-0.3,2.1-0.9C112.2,12.2,112.4,11.4,112.4,10.2"/>
	<path class="st0" d="M124,7.5V13c0,0.5,0,0.8,0,0.9c0,0.1-0.1,0.2-0.2,0.2c-0.1,0-0.1,0-0.1-0.1l-0.1-0.2l-5.1-6.3l-0.1-0.1
		c0,0,0,0-0.1,0c-0.1,0-0.1,0.1-0.1,0.3v4.5l0,0.3l0,0.5c0,0.3,0.1,0.5,0.2,0.6c0.1,0.1,0.3,0.2,0.6,0.2c0.1,0,0.2,0.1,0.2,0.2
		c0,0.1,0,0.1-0.1,0.1c-0.1,0-0.1,0-0.2,0c0,0-0.2,0-0.5,0l-0.6,0l-0.3,0c-0.2,0-0.3,0-0.4,0c-0.1,0-0.2,0-0.2,0
		c-0.1,0-0.2,0-0.2-0.1c0-0.1,0-0.1,0.2-0.2c0.3-0.1,0.6-0.3,0.7-0.5c0.1-0.2,0.2-0.6,0.2-1V7.7c0-0.8-0.1-1.4-0.3-1.8
		c-0.2-0.4-0.5-0.7-1-0.7c-0.1,0-0.2-0.1-0.2-0.1c0-0.1,0-0.1,0.1-0.1c0,0,0,0,0.1,0l0.2,0l0.4,0l0.1,0c0.1,0,0.2,0,0.2,0
		c0.1,0,0.2,0.1,0.3,0.2l5.5,6.9c0.1,0.1,0.1,0.2,0.2,0.2c0,0,0.1,0,0.1-0.1V8.8l0-0.9l-0.1-1.5c0-0.4-0.1-0.6-0.3-0.8
		c-0.2-0.2-0.4-0.3-0.9-0.3c-0.1,0-0.2-0.1-0.2-0.2c0-0.1,0.1-0.1,0.2-0.1c0.1,0,0.1,0,0.3,0c0.3,0,0.6,0,1.1,0c0.2,0,0.4,0,0.6,0
		c0.1,0,0.2,0,0.3,0c0.1,0,0.2,0.1,0.2,0.1c0,0.1,0,0.1-0.1,0.1c-0.2,0.1-0.4,0.2-0.5,0.3c-0.1,0.2-0.1,0.4-0.1,0.9v0.7L124,7.5z"/>
	<path class="st0" d="M130,6.9v4.9c0,0.6,0,1,0.1,1.2c0.1,0.2,0.2,0.4,0.3,0.5c0.1,0.1,0.3,0.2,0.6,0.2c0.2,0,0.3,0.1,0.3,0.2
		c0,0.1-0.1,0.2-0.2,0.2c-0.1,0-0.1,0-0.2,0c-0.1,0-0.3,0-0.6,0l-0.9,0l-0.7,0c-0.1,0-0.2,0-0.3,0c-0.1,0-0.2,0-0.2-0.1
		c0-0.1,0.1-0.1,0.2-0.1c0.3-0.1,0.5-0.2,0.6-0.3c0.1-0.2,0.1-0.5,0.1-1.1V6.7c0-0.5-0.1-0.9-0.2-1.1c-0.1-0.2-0.4-0.3-0.7-0.4
		c-0.1,0-0.2-0.1-0.2-0.2c0-0.1,0.1-0.1,0.2-0.1c0,0,0.1,0,0.1,0c0.3,0,0.7,0.1,1.2,0.1c0.3,0,0.5,0,0.8,0l0.4,0c0.1,0,0.1,0,0.2,0
		c0.1,0,0.2,0,0.2,0.1c0,0.1-0.1,0.1-0.2,0.2l-0.3,0.1C130.1,5.5,130,6,130,6.9"/>
	<path class="st0" d="M135.8,6.6l2.3,5.8c0.1,0.1,0.1,0.2,0.2,0.2c0,0,0.1-0.1,0.2-0.4l0.1-0.2l1.3-3.4c0.6-1.5,0.8-2.4,0.8-2.8
		c0-0.1,0-0.2-0.1-0.3c-0.1-0.1-0.2-0.1-0.4-0.1c-0.2,0-0.3-0.1-0.3-0.2c0-0.1,0.1-0.1,0.2-0.1c0,0,0.1,0,0.2,0c0.3,0,0.5,0,0.5,0
		h0.2l0.3,0h0.2l0.5,0c0.1,0,0.1,0,0.1,0.1c0,0.1,0,0.1-0.1,0.1c-0.3,0.1-0.5,0.4-0.7,0.8l-0.2,0.4l-3,7.7c-0.1,0.2-0.2,0.3-0.2,0.3
		c-0.1,0-0.2-0.1-0.3-0.3l-3-7.7c-0.1-0.4-0.3-0.6-0.4-0.7c-0.1-0.1-0.3-0.2-0.5-0.3c-0.2,0-0.3-0.1-0.4-0.1c0,0-0.1-0.1-0.1-0.1
		c0-0.1,0.1-0.1,0.2-0.1c0,0,0.1,0,0.2,0c0.1,0,0.3,0,0.6,0l0.6,0l0.4,0c0.1,0,0.2,0,0.4,0c0.1,0,0.1,0,0.2,0c0.1,0,0.2,0,0.2,0.1
		c0,0.1,0,0.1-0.1,0.1c-0.2,0.1-0.3,0.1-0.3,0.2c0,0-0.1,0.1-0.1,0.2C135.6,5.8,135.6,6.1,135.8,6.6"/>
	<path class="st0" d="M146.5,6v2.7c0,0.2,0,0.3,0.1,0.4c0,0,0.1,0.1,0.3,0.1h0.9c0.4,0,0.8,0,1-0.1c0.2,0,0.4-0.1,0.4-0.2
		c0.1-0.1,0.1-0.3,0.2-0.6c0-0.1,0.1-0.2,0.2-0.2c0.1,0,0.1,0.1,0.1,0.2c0,0,0,0.1,0,0.1c0,0.4-0.1,0.8-0.1,1.2c0,0.3,0,0.5,0,0.8
		c0,0.1,0,0.1,0,0.2c0,0.1,0,0.2-0.1,0.2c-0.1,0-0.1,0-0.2-0.1l0-0.2c0-0.3-0.1-0.5-0.3-0.6c-0.1-0.1-0.4-0.2-0.7-0.2H147
		c-0.2,0-0.3,0-0.4,0.1c-0.1,0-0.1,0.1-0.1,0.3l0,0.2v2.4c0,0.4,0.1,0.6,0.2,0.7c0.1,0.1,0.4,0.1,0.9,0.1c1.6,0,2.6-0.4,3-1.2
		c0-0.1,0.1-0.1,0.1-0.1c0.1,0,0.1,0.1,0.1,0.2c0,0.3-0.1,0.6-0.4,1c-0.4,0.5-0.8,0.7-1.3,0.7c-0.1,0-0.3,0-0.5,0
		c-0.8-0.1-1.4-0.1-1.9-0.1c-0.7,0-1.2,0-1.5,0.1c-0.2,0-0.3,0-0.3,0c-0.1,0-0.2,0-0.2-0.1c0-0.1,0-0.1,0.2-0.2l0.2-0.1
		c0.3-0.1,0.4-0.4,0.4-0.9l0-0.4V6.8c0-0.6-0.1-1.1-0.2-1.3c-0.1-0.2-0.4-0.3-0.7-0.3c-0.1,0-0.2,0-0.2-0.1c0-0.1,0.1-0.2,0.3-0.2
		c0.1,0,0.2,0,0.4,0c0.6,0.1,1.3,0.1,2.1,0.1c0.5,0,0.9,0,1.3,0l0.9,0c0.2,0,0.4,0,0.4,0c0.1,0,0.2,0,0.2,0c0.1,0,0.2,0.1,0.2,0.2
		c0,0,0,0.1,0,0.1c0,0.1,0,0.2,0,0.5l0,0.4c0,0.3,0,0.4-0.1,0.5c0,0.1-0.1,0.1-0.1,0.1c-0.1,0-0.1-0.1-0.1-0.2V6.4
		c0-0.1,0-0.3-0.1-0.4c-0.1-0.2-0.2-0.3-0.5-0.4c-0.2-0.1-0.7-0.1-1.3-0.1h-0.9c-0.2,0-0.4,0-0.5,0.1C146.6,5.7,146.5,5.8,146.5,6"
		/>
	<path class="st0" d="M156.3,9.3h0.7c0.5,0,0.9-0.2,1.2-0.5c0.3-0.3,0.5-0.7,0.5-1.3c0-0.6-0.2-1.2-0.6-1.6
		c-0.4-0.4-0.9-0.6-1.6-0.6c-0.2,0-0.4,0-0.5,0.1c-0.1,0.1-0.1,0.2-0.1,0.5l0,0.2v2.7c0,0.2,0,0.3,0.1,0.4
		C156,9.3,156.1,9.3,156.3,9.3 M158,9.5l1.7,2.7l0.2,0.3c0.5,0.8,1,1.2,1.4,1.3l0.2,0c0.1,0,0.1,0,0.1,0.1c0,0.1-0.1,0.1-0.3,0.2
		c-0.2,0.1-0.4,0.1-0.6,0.1c-0.4,0-0.7-0.1-1-0.3c-0.3-0.2-0.6-0.6-0.9-1.1l-1.5-2.5l-0.1-0.1c-0.1-0.2-0.3-0.3-0.5-0.3H156l-0.1,0
		c0,0-0.1,0.1-0.1,0.2v2.1l0,0.3c0,0.4,0,0.6,0,0.8c0,0.1,0.1,0.3,0.2,0.4c0.2,0.2,0.4,0.2,0.8,0.3c0.1,0,0.2,0.1,0.2,0.1
		c0,0.1-0.1,0.1-0.2,0.1c-0.1,0-0.2,0-0.4,0c-0.2,0-0.4,0-0.8,0l-0.6,0l-0.3,0c-0.1,0-0.3,0-0.5,0c-0.2,0-0.3,0-0.3,0
		c-0.1,0-0.1,0-0.1-0.1c0-0.1,0-0.1,0.1-0.1c0.3-0.1,0.5-0.2,0.6-0.5c0.1-0.2,0.2-0.7,0.2-1.5V7.1l0-0.7c0-0.7-0.2-1.1-0.7-1.1
		l-0.3,0c-0.1,0-0.2-0.1-0.2-0.2c0-0.1,0.1-0.1,0.2-0.1c0,0,0.2,0,0.4,0c0.1,0,0.3,0,0.5,0c0.2,0,0.5,0,0.9,0c0.3,0,0.6,0,0.8,0
		c0.9,0,1.6,0.2,2.1,0.6c0.5,0.4,0.7,0.9,0.7,1.7C159.5,8.2,159,8.9,158,9.5"/>
	<path class="st0" d="M166.7,4.8c0.4,0,0.8,0.1,1.1,0.2l0.4,0.2c0,0,0.1,0,0.1,0c0,0,0.1,0,0.1-0.1l0.1-0.1c0,0,0,0,0.1,0
		c0.1,0,0.1,0.1,0.1,0.3c0,0.1,0,0.3,0.1,0.7l0.1,0.7c0,0.1,0,0.2,0,0.3c0,0.1,0,0.2-0.1,0.2c-0.1,0-0.1-0.1-0.2-0.3
		c-0.1-0.5-0.4-0.9-0.9-1.2c-0.4-0.3-0.9-0.5-1.5-0.5c-0.4,0-0.8,0.1-1.1,0.4c-0.3,0.3-0.4,0.6-0.4,1c0,0.4,0.1,0.7,0.3,1
		c0.2,0.2,0.3,0.4,0.5,0.5c0.2,0.1,0.7,0.3,1.4,0.6c1.5,0.5,2.2,1.4,2.2,2.6c0,0.8-0.3,1.5-0.8,2c-0.5,0.5-1.2,0.8-2.1,0.8
		c-0.3,0-0.6,0-1-0.1c-0.4-0.1-0.6-0.2-0.8-0.3c-0.1-0.1-0.1-0.1-0.1-0.2c0-0.1-0.1-0.2-0.1-0.5c0,0-0.1-0.2-0.1-0.6
		c-0.1-0.4-0.2-0.7-0.2-0.8c0-0.1,0-0.2,0.1-0.2c0.1,0,0.1,0.1,0.2,0.3c0.1,0.5,0.4,1,0.9,1.4c0.5,0.4,1,0.6,1.5,0.6
		c0.5,0,1-0.2,1.4-0.5c0.4-0.4,0.6-0.8,0.6-1.3c0-0.5-0.2-0.9-0.5-1.2c-0.2-0.2-0.7-0.4-1.6-0.7c-0.9-0.3-1.5-0.7-1.9-1.1
		c-0.4-0.4-0.6-0.9-0.6-1.5c0-0.7,0.2-1.3,0.7-1.7C165.3,5.1,165.9,4.8,166.7,4.8"/>
	<path class="st0" d="M174.3,6.9v4.9c0,0.6,0,1,0.1,1.2c0.1,0.2,0.2,0.4,0.3,0.5c0.1,0.1,0.3,0.2,0.6,0.2c0.2,0,0.3,0.1,0.3,0.2
		c0,0.1-0.1,0.2-0.2,0.2c-0.1,0-0.1,0-0.2,0c-0.1,0-0.3,0-0.6,0l-0.9,0l-0.7,0c-0.1,0-0.2,0-0.3,0c-0.1,0-0.2,0-0.2-0.1
		c0-0.1,0.1-0.1,0.2-0.1c0.3-0.1,0.5-0.2,0.6-0.3c0.1-0.2,0.1-0.5,0.1-1.1V6.7c0-0.5-0.1-0.9-0.2-1.1c-0.1-0.2-0.4-0.3-0.7-0.4
		c-0.1,0-0.2-0.1-0.2-0.2c0-0.1,0.1-0.1,0.2-0.1c0,0,0.1,0,0.1,0c0.3,0,0.7,0.1,1.2,0.1c0.3,0,0.5,0,0.8,0l0.4,0c0.1,0,0.1,0,0.2,0
		c0.1,0,0.2,0,0.2,0.1c0,0.1-0.1,0.1-0.2,0.2l-0.3,0.1C174.5,5.5,174.3,6,174.3,6.9"/>
	<path class="st0" d="M180.5,6.1v6.8c0,0.3,0.1,0.4,0.4,0.5c0.2,0.1,0.5,0.2,0.8,0.2c0.3,0.1,0.6,0.1,0.8,0.1c0.7,0,1.3-0.2,1.8-0.6
		c0.9-0.6,1.4-1.7,1.4-3.2c0-0.8-0.1-1.6-0.4-2.3C185,7,184.6,6.4,184.1,6c-0.6-0.5-1.4-0.7-2.3-0.7c-0.6,0-1,0.1-1.2,0.2
		C180.5,5.6,180.5,5.8,180.5,6.1 M179.6,6.6c0-0.4-0.1-0.8-0.2-1c-0.1-0.2-0.4-0.3-0.7-0.4c-0.1,0-0.2-0.1-0.2-0.1
		c0-0.1,0.1-0.1,0.2-0.1l0.5,0c0,0,0.2,0,0.4,0c0.4,0,0.7,0,0.9,0l0.6-0.1c0.2,0,0.5,0,0.8,0c1.6,0,2.9,0.4,3.7,1.4
		c0.7,0.8,1.1,1.9,1.1,3.2c0,0.8-0.2,1.6-0.5,2.3c-0.3,0.7-0.8,1.2-1.4,1.6c-0.7,0.5-1.5,0.8-2.4,0.8c-0.1,0-0.3,0-0.6,0
		c-0.5,0-1-0.1-1.4-0.1c-0.4,0-0.8,0-1.1,0.1c-0.1,0-0.3,0-0.3,0c-0.1,0-0.2,0-0.2-0.1c0-0.1,0.1-0.1,0.2-0.1
		c0.3-0.1,0.4-0.2,0.5-0.3c0.1-0.2,0.1-0.5,0.1-1V6.6z"/>
	<path class="st0" d="M193.7,9.5l-0.9-2.6l0-0.1c0-0.1-0.1-0.2-0.2-0.2c0,0-0.1,0-0.1,0.1l-1.2,2.8c-0.1,0.1-0.1,0.2-0.1,0.2
		c0,0.1,0.1,0.2,0.3,0.2l0.2,0h1.8c0.2,0,0.3-0.1,0.3-0.2c0,0,0-0.1,0-0.2L193.7,9.5z M193.6,10.6h-2.2c-0.3,0-0.5,0-0.5,0.1
		c-0.1,0-0.2,0.2-0.3,0.5l-0.4,1c-0.2,0.4-0.3,0.8-0.3,1c0,0.2,0,0.4,0.1,0.5c0.1,0.1,0.3,0.2,0.6,0.2c0.1,0,0.2,0.1,0.2,0.2
		c0,0.1-0.1,0.1-0.2,0.1c0,0-0.1,0-0.2,0l-0.6,0c-0.2,0-0.4,0-0.7,0c-0.1,0-0.2,0-0.3,0c-0.2,0-0.3,0-0.3,0c-0.1,0-0.2,0-0.2-0.1
		c0-0.1,0-0.1,0.1-0.1l0.2-0.1c0.1,0,0.2-0.1,0.3-0.3c0.1-0.2,0.2-0.4,0.3-0.6l0.2-0.4l3.1-7.5c0.1-0.1,0.1-0.2,0.2-0.2
		c0.1,0,0.1,0.1,0.2,0.2l2.6,7.2l0.1,0.4c0.2,0.5,0.3,0.9,0.5,1c0.1,0.1,0.4,0.2,0.8,0.3c0.1,0,0.2,0.1,0.2,0.2
		c0,0.1-0.1,0.1-0.2,0.1c0,0-0.1,0-0.2,0c-0.2,0-0.6,0-1.1,0c-0.6,0-0.9,0-1,0c-0.1,0-0.1,0-0.2,0c-0.1,0-0.2,0-0.2-0.1
		c0-0.1,0.1-0.1,0.2-0.1l0.2,0c0.2,0,0.3-0.2,0.3-0.4c0-0.2-0.1-0.7-0.4-1.4l-0.3-0.9c-0.1-0.2-0.1-0.4-0.2-0.4
		C194,10.6,193.8,10.6,193.6,10.6"/>
	<path class="st0" d="M201.5,6.1v6.8c0,0.3,0.1,0.4,0.4,0.5c0.2,0.1,0.5,0.2,0.8,0.2c0.3,0.1,0.6,0.1,0.8,0.1c0.7,0,1.3-0.2,1.8-0.6
		c0.9-0.6,1.4-1.7,1.4-3.2c0-0.8-0.1-1.6-0.4-2.3C206,7,205.6,6.4,205.1,6c-0.6-0.5-1.4-0.7-2.3-0.7c-0.6,0-1,0.1-1.2,0.2
		C201.6,5.6,201.5,5.8,201.5,6.1 M200.6,6.6c0-0.4-0.1-0.8-0.2-1c-0.1-0.2-0.4-0.3-0.7-0.4c-0.1,0-0.2-0.1-0.2-0.1
		c0-0.1,0.1-0.1,0.2-0.1l0.5,0c0,0,0.2,0,0.4,0c0.4,0,0.7,0,0.9,0l0.6-0.1c0.2,0,0.5,0,0.8,0c1.6,0,2.9,0.4,3.7,1.4
		c0.7,0.8,1.1,1.9,1.1,3.2c0,0.8-0.2,1.6-0.5,2.3c-0.3,0.7-0.8,1.2-1.4,1.6c-0.7,0.5-1.5,0.8-2.4,0.8c-0.1,0-0.3,0-0.6,0
		c-0.5,0-1-0.1-1.4-0.1c-0.4,0-0.8,0-1.1,0.1c-0.1,0-0.3,0-0.3,0c-0.1,0-0.2,0-0.2-0.1c0-0.1,0.1-0.1,0.2-0.1
		c0.3-0.1,0.4-0.2,0.5-0.3c0.1-0.2,0.1-0.5,0.1-1V6.6z"/>
	<path class="st0" d="M212.7,6v2.7c0,0.2,0,0.3,0.1,0.4c0,0,0.1,0.1,0.3,0.1h0.9c0.4,0,0.8,0,1-0.1c0.2,0,0.4-0.1,0.4-0.2
		c0.1-0.1,0.1-0.3,0.2-0.6c0-0.1,0.1-0.2,0.2-0.2c0.1,0,0.1,0.1,0.1,0.2c0,0,0,0.1,0,0.1c0,0.4-0.1,0.8-0.1,1.2c0,0.3,0,0.5,0,0.8
		c0,0.1,0,0.1,0,0.2c0,0.1,0,0.2-0.1,0.2c-0.1,0-0.1,0-0.2-0.1l0-0.2c0-0.3-0.1-0.5-0.3-0.6c-0.1-0.1-0.4-0.2-0.7-0.2h-1.3
		c-0.2,0-0.3,0-0.4,0.1c-0.1,0-0.1,0.1-0.1,0.3l0,0.2v2.4c0,0.4,0.1,0.6,0.2,0.7c0.1,0.1,0.4,0.1,0.9,0.1c1.6,0,2.6-0.4,3-1.2
		c0-0.1,0.1-0.1,0.1-0.1c0.1,0,0.1,0.1,0.1,0.2c0,0.3-0.1,0.6-0.4,1c-0.4,0.5-0.8,0.7-1.3,0.7c-0.1,0-0.3,0-0.5,0
		c-0.8-0.1-1.4-0.1-1.9-0.1c-0.7,0-1.2,0-1.5,0.1c-0.2,0-0.3,0-0.3,0c-0.1,0-0.2,0-0.2-0.1c0-0.1,0.1-0.1,0.2-0.2l0.2-0.1
		c0.3-0.1,0.4-0.4,0.4-0.9l0-0.4V6.8c0-0.6-0.1-1.1-0.2-1.3c-0.1-0.2-0.4-0.3-0.7-0.3c-0.1,0-0.2,0-0.2-0.1c0-0.1,0.1-0.2,0.3-0.2
		c0.1,0,0.2,0,0.4,0C212,5,212.7,5,213.5,5c0.5,0,0.9,0,1.3,0l0.9,0c0.2,0,0.4,0,0.4,0c0.1,0,0.2,0,0.2,0c0.1,0,0.2,0.1,0.2,0.2
		c0,0,0,0.1,0,0.1c0,0.1,0,0.2,0,0.5l0,0.4c0,0.3,0,0.4-0.1,0.5c0,0.1-0.1,0.1-0.1,0.1c-0.1,0-0.1-0.1-0.1-0.2V6.4
		c0-0.1,0-0.3-0.1-0.4c-0.1-0.2-0.2-0.3-0.5-0.4c-0.2-0.1-0.7-0.1-1.3-0.1h-0.9c-0.2,0-0.4,0-0.5,0.1C212.8,5.7,212.7,5.8,212.7,6"
		/>
	<path class="st0" d="M75.7,23.2l0.3,2.6l0,0.3l0,0.1c0,0.1-0.1,0.1-0.1,0.1c-0.1,0-0.2-0.1-0.4-0.5c-1.2-2.4-2.9-3.5-5-3.5
		c-1.7,0-3,0.6-4,1.7c-1,1.1-1.5,2.7-1.5,4.6c0,2.3,0.5,4.1,1.6,5.5c1.1,1.4,2.5,2.2,4.2,2.2c1,0,2-0.3,2.9-0.9c1-0.6,1.6-1.3,2-2.1
		c0.2-0.4,0.3-0.6,0.4-0.6c0.1,0,0.2,0.1,0.2,0.2l0,0.1l0,0.2l-0.2,1.3l0,0.2c0,0.2-0.2,0.4-0.5,0.6c-1.5,1.1-3.2,1.6-5,1.6
		c-2.1,0-3.8-0.7-5.1-2.1c-1.3-1.4-1.9-3.2-1.9-5.5c0-2.3,0.7-4.1,2-5.6c1.3-1.5,3-2.2,5.1-2.2c1.4,0,2.7,0.3,3.8,1l0.4,0.2l0.2,0.1
		l0.2,0.1c0,0,0.1,0,0.1-0.1c0.1-0.1,0.2-0.2,0.3-0.2C75.6,22.8,75.7,22.9,75.7,23.2"/>
	<path class="st0" d="M86.4,29.4l-1.6-4.3l-0.1-0.2c-0.1-0.2-0.2-0.4-0.3-0.4c0,0-0.1,0.1-0.2,0.2l-1.9,4.7
		c-0.1,0.2-0.1,0.3-0.1,0.4c0,0.2,0.2,0.3,0.5,0.3l0.3,0h3c0.3,0,0.5-0.1,0.5-0.3c0-0.1,0-0.1,0-0.2L86.4,29.4z M86.3,31.1h-3.6
		c-0.5,0-0.8,0-0.9,0.1c-0.1,0.1-0.3,0.4-0.5,0.9l-0.7,1.6c-0.3,0.7-0.4,1.3-0.4,1.6c0,0.3,0.1,0.6,0.2,0.7c0.2,0.2,0.5,0.3,0.9,0.4
		c0.2,0,0.3,0.1,0.3,0.3c0,0.1-0.1,0.2-0.3,0.2c-0.1,0-0.2,0-0.3,0l-0.9-0.1c-0.3,0-0.7,0-1.1,0c-0.2,0-0.3,0-0.4,0
		c-0.3,0-0.5,0.1-0.6,0.1c-0.2,0-0.3-0.1-0.3-0.2c0-0.1,0.1-0.2,0.2-0.2l0.4-0.1c0.1,0,0.3-0.2,0.5-0.5c0.2-0.3,0.4-0.6,0.6-1
		l0.3-0.7l5.1-12.4c0.1-0.2,0.2-0.3,0.3-0.3c0.1,0,0.2,0.1,0.3,0.3l4.3,12l0.2,0.6c0.3,0.9,0.6,1.4,0.8,1.6c0.2,0.2,0.6,0.4,1.2,0.5
		c0.2,0,0.3,0.1,0.3,0.3c0,0.1-0.1,0.2-0.3,0.2c-0.1,0-0.2,0-0.4,0c-0.3,0-1,0-1.8,0c-0.9,0-1.5,0-1.7,0.1c-0.1,0-0.2,0-0.3,0
		c-0.2,0-0.3-0.1-0.3-0.2c0-0.1,0.1-0.2,0.2-0.2l0.3-0.1c0.3-0.1,0.5-0.3,0.5-0.7c0-0.4-0.2-1.1-0.6-2.3l-0.5-1.4
		c-0.1-0.4-0.2-0.6-0.3-0.7C86.9,31.1,86.7,31.1,86.3,31.1"/>
	<path class="st0" d="M105.8,26.1v9.1c0,0.8,0,1.3,0,1.5c0,0.2-0.1,0.3-0.3,0.3c-0.1,0-0.2,0-0.2-0.1l-0.2-0.3l-8.3-10.5L96.5,26
		c0,0-0.1-0.1-0.1-0.1c-0.1,0-0.2,0.2-0.2,0.5v7.4l0,0.5l0,0.8c0,0.5,0.2,0.8,0.3,1c0.2,0.2,0.5,0.3,1,0.4c0.2,0,0.3,0.1,0.3,0.3
		c0,0.1-0.1,0.2-0.2,0.2c-0.1,0-0.2,0-0.3,0c-0.1,0-0.4,0-0.9-0.1l-1-0.1l-0.5,0c-0.3,0-0.5,0-0.7,0c-0.2,0-0.3,0-0.4,0
		c-0.2,0-0.3-0.1-0.3-0.2c0-0.1,0.1-0.2,0.3-0.3c0.6-0.2,0.9-0.5,1.1-0.8c0.2-0.4,0.3-0.9,0.3-1.7v-7.4c0-1.3-0.2-2.2-0.5-3
		c-0.4-0.7-0.9-1.1-1.6-1.2c-0.2,0-0.3-0.1-0.3-0.2c0-0.1,0.1-0.2,0.2-0.2c0,0,0.1,0,0.2,0l0.4,0l0.7,0l0.2,0c0.2,0,0.3,0,0.4,0
		c0.2,0,0.3,0.1,0.5,0.3l9.1,11.3c0.1,0.2,0.2,0.3,0.3,0.3c0.1,0,0.1-0.1,0.1-0.2v-5.4l0-1.5l-0.1-2.5c-0.1-0.6-0.2-1.1-0.5-1.3
		c-0.3-0.3-0.7-0.4-1.4-0.6c-0.2,0-0.3-0.1-0.3-0.3c0-0.1,0.1-0.2,0.3-0.2c0.1,0,0.2,0,0.4,0c0.5,0.1,1.1,0.1,1.8,0.1
		c0.4,0,0.7,0,1-0.1c0.2,0,0.4-0.1,0.5-0.1c0.2,0,0.3,0.1,0.3,0.2c0,0.1-0.1,0.2-0.2,0.2c-0.4,0.1-0.7,0.3-0.8,0.5
		c-0.1,0.3-0.2,0.7-0.2,1.4v1.2L105.8,26.1z"/>
	<path class="st0" d="M113.2,23.7v11.2c0,0.4,0.2,0.7,0.6,0.9c0.3,0.1,0.8,0.3,1.3,0.4c0.5,0.1,1,0.2,1.4,0.2c1.1,0,2.1-0.3,3-0.9
		c1.5-1,2.3-2.8,2.3-5.3c0-1.4-0.2-2.6-0.7-3.8c-0.5-1.1-1.1-2-2-2.7c-1-0.8-2.3-1.2-3.7-1.2c-1,0-1.7,0.1-2,0.4
		C113.3,22.9,113.2,23.2,113.2,23.7 M111.7,24.6c0-0.7-0.1-1.3-0.3-1.6c-0.2-0.3-0.6-0.5-1.1-0.6c-0.2,0-0.3-0.1-0.3-0.2
		c0-0.1,0.1-0.2,0.3-0.2l0.8,0c0.1,0,0.3,0,0.7,0c0.7,0,1.2,0,1.6-0.1l0.9-0.1c0.4,0,0.8-0.1,1.3-0.1c2.7,0,4.7,0.7,6.1,2.2
		c1.2,1.4,1.9,3.1,1.9,5.2c0,1.4-0.3,2.6-0.8,3.8c-0.5,1.1-1.3,2-2.3,2.7c-1.2,0.8-2.5,1.2-4,1.2c-0.2,0-0.5,0-0.9-0.1
		c-0.9-0.1-1.7-0.1-2.3-0.1c-0.7,0-1.3,0-1.8,0.1c-0.2,0-0.4,0.1-0.6,0.1c-0.2,0-0.3-0.1-0.3-0.2c0-0.1,0.1-0.2,0.3-0.2
		c0.4-0.1,0.7-0.3,0.9-0.5c0.1-0.3,0.2-0.8,0.2-1.6V24.6z"/>
	<path class="st0" d="M129.5,25.1v8.1c0,1,0.1,1.7,0.2,2c0.1,0.4,0.3,0.6,0.5,0.8c0.2,0.1,0.5,0.3,0.9,0.3c0.3,0,0.5,0.1,0.5,0.3
		c0,0.2-0.1,0.3-0.3,0.3c-0.1,0-0.2,0-0.4,0c-0.2,0-0.6,0-1,0l-1.4,0l-1.2,0.1c-0.2,0-0.4,0-0.5,0c-0.2,0-0.3-0.1-0.3-0.2
		c0-0.1,0.1-0.2,0.3-0.2c0.5-0.1,0.8-0.3,1-0.6c0.1-0.3,0.2-0.9,0.2-1.8v-9.3c0-0.9-0.1-1.5-0.3-1.8c-0.2-0.3-0.6-0.5-1.2-0.6
		c-0.2,0-0.3-0.1-0.3-0.3c0-0.2,0.1-0.2,0.3-0.2c0.1,0,0.1,0,0.2,0c0.5,0.1,1.1,0.1,1.9,0.1c0.5,0,0.9,0,1.3,0l0.7-0.1
		c0.1,0,0.2,0,0.2,0c0.2,0,0.3,0.1,0.3,0.2c0,0.1-0.1,0.2-0.3,0.3l-0.5,0.2C129.7,22.7,129.5,23.6,129.5,25.1"/>
	<path class="st0" d="M137.4,23.7v11.2c0,0.4,0.2,0.7,0.6,0.9c0.3,0.1,0.8,0.3,1.3,0.4c0.5,0.1,1,0.2,1.4,0.2c1.1,0,2.1-0.3,3-0.9
		c1.5-1,2.3-2.8,2.3-5.3c0-1.4-0.2-2.6-0.7-3.8c-0.5-1.1-1.1-2-2-2.7c-1-0.8-2.3-1.2-3.7-1.2c-1,0-1.7,0.1-2,0.4
		C137.5,22.9,137.4,23.2,137.4,23.7 M135.9,24.6c0-0.7-0.1-1.3-0.3-1.6c-0.2-0.3-0.6-0.5-1.1-0.6c-0.2,0-0.3-0.1-0.3-0.2
		c0-0.1,0.1-0.2,0.3-0.2l0.8,0c0.1,0,0.3,0,0.7,0c0.7,0,1.2,0,1.6-0.1l0.9-0.1c0.4,0,0.8-0.1,1.3-0.1c2.7,0,4.7,0.7,6.1,2.2
		c1.2,1.4,1.9,3.1,1.9,5.2c0,1.4-0.3,2.6-0.8,3.8c-0.5,1.1-1.3,2-2.3,2.7c-1.2,0.8-2.5,1.2-4,1.2c-0.2,0-0.5,0-0.9-0.1
		c-0.9-0.1-1.7-0.1-2.3-0.1c-0.7,0-1.3,0-1.8,0.1c-0.2,0-0.4,0.1-0.6,0.1c-0.2,0-0.3-0.1-0.3-0.2c0-0.1,0.1-0.2,0.3-0.2
		c0.4-0.1,0.7-0.3,0.9-0.5c0.1-0.3,0.2-0.8,0.2-1.6V24.6z"/>
	<path class="st0" d="M156.9,22.4c-1.5,0-2.7,0.6-3.7,1.7c-0.9,1.1-1.4,2.7-1.4,4.6c0,2.2,0.6,4,1.7,5.5c1.2,1.5,2.6,2.3,4.2,2.3
		c1.5,0,2.8-0.6,3.8-1.8c1-1.2,1.5-2.8,1.5-4.7c0-2.2-0.6-4-1.8-5.4C160.2,23.1,158.7,22.4,156.9,22.4 M157.6,21.7
		c2.1,0,3.8,0.7,5.1,2.1c1.3,1.4,2,3.2,2,5.4c0,2.3-0.7,4.2-2,5.7c-1.3,1.5-3,2.2-5.1,2.2c-2.1,0-3.9-0.7-5.2-2.1
		c-1.3-1.4-2-3.3-2-5.6c0-1,0.2-2,0.5-3c0.3-1,0.8-1.8,1.4-2.5c0.6-0.7,1.4-1.2,2.4-1.7C155.6,21.9,156.6,21.7,157.6,21.7"/>
	<path class="st0" d="M184.8,25.8c-0.6,1.1-0.9,1.8-1.1,2.2l-0.9,2.1l-1,2.3c-0.1,0.1-0.3,0.8-0.8,2c-0.2,0.5-0.4,0.9-0.5,1.2
		c-0.1,0.2-0.1,0.3-0.2,0.4c-0.1,0.3-0.3,0.5-0.4,0.5c-0.2,0-0.3-0.2-0.5-0.5c0-0.1-0.1-0.3-0.3-0.6l-0.2-0.5l-3.7-8.8l-0.2,5.4
		c0,0.4,0,1.3,0,2.6c0,1.3,0.4,2,1.2,2.1c0.4,0.1,0.6,0.2,0.6,0.3c0,0.2-0.1,0.2-0.3,0.2c-0.1,0-0.2,0-0.4,0
		c-0.7-0.1-1.3-0.1-1.7-0.1c-0.5,0-0.9,0-1.4,0.1c-0.1,0-0.2,0-0.3,0c-0.2,0-0.3-0.1-0.3-0.2c0-0.1,0.1-0.2,0.2-0.2
		c0.5-0.1,0.8-0.4,1-0.7c0.2-0.4,0.3-1,0.3-1.9l0.1-3.1c0.1-2.3,0.1-3.7,0.1-4.3c0-1.3-0.2-2.2-0.5-2.9c-0.3-0.6-0.8-1-1.6-1.1
		c-0.2,0-0.3-0.1-0.3-0.3c0-0.2,0.1-0.2,0.2-0.2c0.1,0,0.2,0,0.3,0c0.1,0,0.3,0,0.7,0c0.5,0,0.9,0,1,0c0.2,0,0.3,0,0.4,0
		c0.3,0,0.5,0.2,0.7,0.7l0.1,0.2l4.1,9.8l0.5,1.1c0.1,0.2,0.1,0.3,0.2,0.3c0,0,0.1-0.1,0.1-0.2l0.1-0.3l0.1-0.2l4.6-10.9
		c0.1-0.2,0.2-0.4,0.2-0.4c0.1-0.1,0.1-0.1,0.3-0.1c0.1,0,0.2,0,0.4,0c0.1,0,0.2,0,0.3,0c0.4,0,0.7,0,1,0c0.1,0,0.2,0,0.3,0
		c0.1,0,0.2,0.1,0.2,0.2c0,0.1-0.1,0.2-0.2,0.3l-0.4,0.1c-0.3,0.1-0.6,0.3-0.7,0.7c-0.1,0.4-0.2,1-0.2,1.8l0.1,2.6l0.2,5.9l0,1.4
		c0,0.6,0.1,0.9,0.3,1.2c0.2,0.2,0.5,0.4,1,0.5c0.3,0.1,0.5,0.2,0.5,0.3c0,0.1-0.1,0.2-0.4,0.2c-0.1,0-0.2,0-0.2,0l-0.8-0.1
		c-0.3,0-0.5,0-0.8,0c-0.2,0-0.5,0-1,0c-0.7,0-1.1,0.1-1.2,0.1c-0.2,0-0.3-0.1-0.3-0.2c0-0.1,0.1-0.2,0.2-0.2
		c0.4-0.1,0.7-0.3,0.8-0.6c0.1-0.3,0.2-0.7,0.2-1.4l0-1.8L184.8,25.8z"/>
	<path class="st0" d="M194.4,23.7V28c0,0.3,0,0.5,0.1,0.6c0.1,0.1,0.2,0.1,0.5,0.1h1.5c0.7,0,1.2,0,1.6-0.1c0.4-0.1,0.6-0.2,0.7-0.3
		c0.1-0.1,0.2-0.4,0.3-0.9c0-0.2,0.1-0.3,0.3-0.3c0.1,0,0.2,0.1,0.2,0.3c0,0.1,0,0.1,0,0.2c-0.1,0.7-0.1,1.3-0.1,1.9
		c0,0.4,0,0.9,0.1,1.3c0,0.1,0,0.2,0,0.3c0,0.2-0.1,0.3-0.2,0.3c-0.1,0-0.2-0.1-0.3-0.2l-0.1-0.3c-0.1-0.5-0.2-0.8-0.5-1
		c-0.2-0.2-0.6-0.3-1.2-0.3h-2.2c-0.3,0-0.5,0-0.6,0.1c-0.1,0.1-0.2,0.2-0.2,0.4l0,0.4v4c0,0.6,0.1,1,0.3,1.2
		c0.2,0.2,0.7,0.2,1.5,0.2c2.6,0,4.3-0.6,5-1.9c0.1-0.1,0.1-0.2,0.2-0.2c0.1,0,0.2,0.1,0.2,0.3c0,0.5-0.2,1-0.7,1.7
		c-0.6,0.8-1.3,1.2-2.2,1.2c-0.2,0-0.5,0-0.8,0c-1.3-0.1-2.3-0.2-3.1-0.2c-1.2,0-2,0-2.4,0.1c-0.3,0.1-0.4,0.1-0.5,0.1
		c-0.2,0-0.3-0.1-0.3-0.2c0-0.1,0.1-0.2,0.3-0.3l0.4-0.1c0.5-0.1,0.7-0.7,0.7-1.5l0-0.7v-9.2c0-1-0.1-1.7-0.3-2.1
		c-0.2-0.4-0.6-0.5-1.2-0.5c-0.2,0-0.3-0.1-0.3-0.2c0-0.2,0.1-0.3,0.4-0.3c0.2,0,0.4,0,0.7,0.1c0.9,0.1,2.1,0.2,3.4,0.2
		c0.8,0,1.5,0,2.1,0l1.4-0.1c0.4,0,0.6,0,0.7,0c0.2,0,0.3,0,0.4,0c0.2,0,0.3,0.1,0.3,0.3c0,0.1,0,0.2,0,0.2c0,0.1,0,0.4-0.1,0.9
		l0,0.6c0,0.4-0.1,0.7-0.1,0.8c0,0.1-0.1,0.2-0.2,0.2c-0.1,0-0.2-0.1-0.2-0.3v-0.3c0-0.2,0-0.5-0.1-0.7c-0.1-0.3-0.4-0.5-0.8-0.7
		c-0.4-0.1-1.1-0.2-2.1-0.2h-1.6c-0.4,0-0.7,0.1-0.8,0.2C194.5,23,194.4,23.3,194.4,23.7"/>
	<path class="st0" d="M216.2,26.1v9.1c0,0.8,0,1.3,0,1.5c0,0.2-0.1,0.3-0.3,0.3c-0.1,0-0.2,0-0.2-0.1l-0.2-0.3l-8.3-10.5L207,26
		c0,0-0.1-0.1-0.1-0.1c-0.1,0-0.2,0.2-0.2,0.5v7.4l0,0.5l0,0.8c0,0.5,0.2,0.8,0.3,1c0.2,0.2,0.5,0.3,1,0.4c0.2,0,0.3,0.1,0.3,0.3
		c0,0.1-0.1,0.2-0.2,0.2c-0.1,0-0.2,0-0.3,0c-0.1,0-0.4,0-0.9-0.1l-1-0.1l-0.5,0c-0.3,0-0.5,0-0.7,0c-0.2,0-0.3,0-0.4,0
		c-0.2,0-0.3-0.1-0.3-0.2c0-0.1,0.1-0.2,0.3-0.3c0.6-0.2,0.9-0.5,1.1-0.8c0.2-0.4,0.3-0.9,0.3-1.7v-7.4c0-1.3-0.2-2.2-0.5-3
		c-0.4-0.7-0.9-1.1-1.6-1.2c-0.2,0-0.3-0.1-0.3-0.2c0-0.1,0.1-0.2,0.2-0.2c0,0,0.1,0,0.2,0l0.4,0l0.7,0l0.2,0c0.2,0,0.3,0,0.4,0
		c0.2,0,0.3,0.1,0.5,0.3l9.1,11.3c0.1,0.2,0.2,0.3,0.3,0.3c0.1,0,0.1-0.1,0.1-0.2v-5.4l0-1.5l-0.1-2.5c-0.1-0.6-0.2-1.1-0.5-1.3
		c-0.3-0.3-0.7-0.4-1.4-0.6c-0.2,0-0.3-0.1-0.3-0.3c0-0.1,0.1-0.2,0.3-0.2c0.1,0,0.2,0,0.4,0c0.5,0.1,1.1,0.1,1.8,0.1
		c0.4,0,0.7,0,1-0.1c0.2,0,0.4-0.1,0.5-0.1c0.2,0,0.3,0.1,0.3,0.2c0,0.1-0.1,0.2-0.2,0.2c-0.4,0.1-0.7,0.3-0.8,0.5
		c-0.1,0.3-0.2,0.7-0.2,1.4v1.2L216.2,26.1z"/>
	<path class="st0" d="M223.7,23.7v11.2c0,0.4,0.2,0.7,0.6,0.9c0.3,0.1,0.8,0.3,1.3,0.4c0.5,0.1,1,0.2,1.4,0.2c1.1,0,2.1-0.3,3-0.9
		c1.5-1,2.3-2.8,2.3-5.3c0-1.4-0.2-2.6-0.7-3.8c-0.5-1.1-1.1-2-2-2.7c-1-0.8-2.3-1.2-3.7-1.2c-1,0-1.7,0.1-2,0.4
		C223.8,22.9,223.7,23.2,223.7,23.7 M222.2,24.6c0-0.7-0.1-1.3-0.3-1.6c-0.2-0.3-0.6-0.5-1.1-0.6c-0.2,0-0.3-0.1-0.3-0.2
		c0-0.1,0.1-0.2,0.3-0.2l0.8,0c0.1,0,0.3,0,0.7,0c0.7,0,1.2,0,1.6-0.1l0.9-0.1c0.4,0,0.8-0.1,1.3-0.1c2.7,0,4.7,0.7,6.1,2.2
		c1.2,1.4,1.9,3.1,1.9,5.2c0,1.4-0.3,2.6-0.8,3.8c-0.5,1.1-1.3,2-2.3,2.7c-1.2,0.8-2.5,1.2-4,1.2c-0.2,0-0.5,0-0.9-0.1
		c-0.9-0.1-1.7-0.1-2.3-0.1c-0.7,0-1.3,0-1.8,0.1c-0.2,0-0.4,0.1-0.6,0.1c-0.2,0-0.3-0.1-0.3-0.2c0-0.1,0.1-0.2,0.3-0.2
		c0.4-0.1,0.7-0.3,0.9-0.5c0.1-0.3,0.2-0.8,0.2-1.6V24.6z"/>
	<path class="st0" d="M240,23.7V28c0,0.3,0,0.5,0.1,0.6c0.1,0.1,0.2,0.1,0.5,0.1h1.5c0.7,0,1.2,0,1.6-0.1c0.4-0.1,0.6-0.2,0.7-0.3
		c0.1-0.1,0.2-0.4,0.3-0.9c0-0.2,0.1-0.3,0.3-0.3c0.1,0,0.2,0.1,0.2,0.3c0,0.1,0,0.1,0,0.2c-0.1,0.7-0.1,1.3-0.1,1.9
		c0,0.4,0,0.9,0.1,1.3c0,0.1,0,0.2,0,0.3c0,0.2-0.1,0.3-0.2,0.3c-0.1,0-0.2-0.1-0.2-0.2l-0.1-0.3c-0.1-0.5-0.2-0.8-0.5-1
		c-0.2-0.2-0.6-0.3-1.2-0.3h-2.2c-0.3,0-0.5,0-0.6,0.1c-0.1,0.1-0.2,0.2-0.2,0.4l0,0.4v4c0,0.6,0.1,1,0.3,1.2
		c0.2,0.2,0.7,0.2,1.5,0.2c2.6,0,4.2-0.6,5-1.9c0.1-0.1,0.1-0.2,0.2-0.2c0.1,0,0.2,0.1,0.2,0.3c0,0.5-0.2,1-0.7,1.7
		c-0.6,0.8-1.3,1.2-2.2,1.2c-0.2,0-0.4,0-0.8,0c-1.3-0.1-2.3-0.2-3.1-0.2c-1.2,0-2,0-2.4,0.1c-0.3,0.1-0.4,0.1-0.5,0.1
		c-0.2,0-0.3-0.1-0.3-0.2c0-0.1,0.1-0.2,0.3-0.3l0.4-0.1c0.5-0.1,0.7-0.7,0.7-1.5l0-0.7v-9.2c0-1-0.1-1.7-0.3-2.1
		c-0.2-0.4-0.6-0.5-1.2-0.5c-0.2,0-0.3-0.1-0.3-0.2c0-0.2,0.1-0.3,0.4-0.3c0.2,0,0.4,0,0.7,0.1c0.9,0.1,2.1,0.2,3.4,0.2
		c0.8,0,1.5,0,2.1,0l1.4-0.1c0.4,0,0.6,0,0.7,0c0.2,0,0.3,0,0.4,0c0.2,0,0.3,0.1,0.3,0.3c0,0.1,0,0.2,0,0.2c0,0.1,0,0.4-0.1,0.9
		l0,0.6c0,0.4-0.1,0.7-0.1,0.8c0,0.1-0.1,0.2-0.2,0.2c-0.1,0-0.2-0.1-0.2-0.3v-0.3c0-0.2,0-0.5-0.1-0.7c-0.1-0.3-0.4-0.5-0.8-0.7
		c-0.4-0.1-1.1-0.2-2.1-0.2h-1.6c-0.4,0-0.7,0.1-0.8,0.2C240,23,240,23.3,240,23.7"/>
	<path class="st0" d="M254.1,21.7c0.7,0,1.3,0.1,1.8,0.3l0.7,0.3c0.1,0,0.1,0,0.2,0c0.1,0,0.2,0,0.2-0.1l0.1-0.1c0,0,0.1,0,0.1,0
		c0.2,0,0.2,0.2,0.2,0.5c0,0.1,0,0.5,0.1,1.1l0.2,1.1c0,0.2,0,0.4,0,0.4c0,0.2-0.1,0.3-0.2,0.3c-0.1,0-0.2-0.2-0.3-0.5
		c-0.2-0.8-0.7-1.4-1.4-1.9c-0.7-0.5-1.5-0.8-2.4-0.8c-0.7,0-1.3,0.2-1.8,0.7c-0.5,0.5-0.7,1-0.7,1.7c0,0.6,0.2,1.1,0.5,1.6
		c0.3,0.4,0.6,0.6,0.9,0.8c0.3,0.2,1.1,0.5,2.4,0.9c2.4,0.9,3.7,2.3,3.7,4.3c0,1.4-0.4,2.5-1.3,3.3c-0.9,0.9-2,1.3-3.5,1.3
		c-0.5,0-1.1-0.1-1.7-0.2c-0.6-0.2-1.1-0.3-1.3-0.6c-0.1-0.1-0.2-0.2-0.2-0.3c0-0.1-0.1-0.3-0.2-0.8c0-0.1-0.1-0.4-0.2-1
		c-0.2-0.6-0.3-1.1-0.3-1.4c0-0.2,0.1-0.3,0.2-0.3c0.1,0,0.2,0.2,0.3,0.5c0.2,0.9,0.7,1.6,1.5,2.3c0.8,0.6,1.6,0.9,2.5,0.9
		c0.9,0,1.7-0.3,2.3-0.9c0.6-0.6,0.9-1.3,0.9-2.1c0-0.8-0.3-1.5-0.9-2c-0.3-0.3-1.2-0.7-2.6-1.2c-1.5-0.5-2.5-1.1-3.1-1.8
		c-0.6-0.7-0.9-1.5-0.9-2.6c0-1.2,0.4-2.1,1.2-2.9C251.8,22,252.9,21.7,254.1,21.7"/>
	<path class="st0" d="M26.3,15.6C26.3,15.6,26.3,15.6,26.3,15.6c-0.2,0.4-0.3,0.5-0.5,0.8l0,0l-0.3,0.3l-0.1,0.1l0,0
		c0,0.1,0.1-0.2-0.1,0.2l0,0c0,0,0,0,0.1,0.2c0.5,0,0.3-0.2,0.4-0.2l0-0.1l0.5-1.5c0,0,0,0,0,0c0.1-0.2,0.2-0.5,0.3-0.8l0-0.1
		c0,0,0,0,0-0.1l0.1-0.4c0.3-1.4,1.3-3.2,1-4.3c0.1-0.2,0-1.1,0-0.4c0,0.5-0.1,1.2-0.2,1.7c0.1-0.1-0.2,1.1-0.1,0.9
		c-0.1,0.3-0.2,0.8-0.2,0.8c0,0.1,0,0.4-0.2,1.2c-0.1,0.3-0.1,0.9-0.1,1c0,0.2,0.1-0.4,0.1-0.2c0.1-1.3,0.6-2.5,0.9-3.8
		c-0.1-0.7,0.6-1.3-0.3-2.1c-0.1,0.4-0.2,0.7-0.2,1.1l0,0.5c0.1,0.2-0.2,0,0.3,0.5c0.3-0.1,0.4-0.3,0.1-0.7c-0.7,0.7-0.8,2.2-1.5,4
		c-0.3,0.9-0.5,1.8-0.8,2.5c0.1,0.1-0.5,0.2,0.3,0.3c-0.1,0.5,0.1,0,0.1,0.1l0.3-0.4c0.2-0.3,0.3-0.5,0.4-0.7l0.1-0.1
		c0.4-0.8,0.7-1.8,0.9-2.5c0.1-0.3,0.1-0.7,0.2-1c0,0.1-0.1,0.3-0.1,0.4c0.1-0.3,0.1-0.7,0.2-0.8c0.1-0.7,0-0.3-0.1-0.1
		c-0.1,0.2,0-0.1-0.1,0.2c0-0.2,0.1-0.3,0.1-0.6c0,0-0.1,0.7-0.1,0.5l0.1-0.7c0,0.1-0.2,0.8-0.2,0.7c0-0.1,0.2-0.6,0.1-0.7
		c0,0,0,0.2-0.1,0.3c0.1-0.7,0.1-1.1,0-0.5c0-0.2,0.1-0.5,0.1-0.8c0,0.1-0.1,0.3-0.1,0.4l0.1-0.4l0,0.1l-0.1,0.3l0-0.3L27.7,11
		c-0.1,0.3-0.1,0.6-0.2,0.8C27.2,13.1,26.9,14.5,26.3,15.6"/>
	<path class="st0" d="M32,14.9C32,14.9,32,14.9,32,14.9c0.2,0.3,0.3,0.6,0.6,0.9l0,0c0,0.1,0.1,0.1,0.2,0.2c0.1-0.2-0.1,0.5,0.3-0.4
		l-0.1-0.1l-0.2-0.2c-0.3-0.4-0.5-0.8-0.8-1.3c0,0,0,0,0,0c-0.1-0.2-0.2-0.5-0.3-0.8l-0.1-0.1c0,0,0,0,0,0l-0.1-0.4
		c-0.3-0.7-0.5-1.4-0.8-2.2c-0.2-0.2-0.1-1.1-0.6-0.8c0.1,0.4,0.1,0.8,0.2,1.3l0.3,1c0.1,0.5,0.3,1.1,0.4,1.6c0-0.1,0.5,1.1,0.4,0.8
		c0.1,0.3,0.3,0.7,0.4,0.8c0.1,0,0.2,0.3,0.7,0.9c0.2,0.3,0.6,0.5,0.7,0.5c0.1,0-0.3-0.2-0.2-0.1c-1.7-1.4-2.2-4.3-2.6-6.7
		c-0.2,0,0.4-0.3-0.5-0.1c0,0.1,0.1,0.2,0.1,0.3c0.1,0.2,0.2,0.5,0.3,0.9c0.2,0.7,0.5,1.5,0.8,2.4c0.3,0.8,0.7,1.7,1.2,2.4
		c0.1,0.2,0.3,0.3,0.4,0.4c0.5-0.7,0-0.3,0-0.6c-0.2-0.2-0.3-0.4-0.4-0.6l-0.1-0.1c-0.4-0.7-0.7-1.6-1-2.3l-0.3-0.9
		c0,0.1,0.1,0.3,0.1,0.4c-0.1-0.3-0.2-0.6-0.2-0.8c-0.1-0.7-0.1-0.3-0.1,0c0,0.2-0.1-0.1,0,0.2c-0.1-0.2-0.1-0.3-0.1-0.6
		c0,0,0.1,0.7,0.1,0.5l-0.1-0.7c0,0.1,0.1,0.8,0.1,0.7c0-0.1-0.1-0.6-0.1-0.7c0,0,0,0.2,0.1,0.3c-0.1-0.7-0.2-1.1-0.1-0.4
		c0-0.2,0-0.5,0-0.8c0,0.1-0.1,0.4,0,0.5c0-0.1,0-0.3,0-0.4l0,0.1c0,0.1,0,0.2,0,0.3c0-0.1,0-0.2,0-0.3l0,0.3c0,0.3,0,0.6,0.1,0.8
		C30.9,12.4,31.4,13.7,32,14.9"/>
	<path class="st0" d="M29.4,17.9C29.4,17.9,29.3,17.8,29.4,17.9c0.5,0,0.8,0,1.3,0l0,0l1,0l2,0c0,0,0,0,0,0h0.1c0-0.2,0.1,0.4,0-0.4
		l-0.1,0l-0.2,0l-0.6,0l-0.2,0c0,0-0.1,0-0.1,0c-0.2,0-0.3,0-0.5,0c-1.9-0.1-3.9-0.3-6,0.2l-0.6,0.2c0.1,0.4,0.4,0.1,0.6,0.2
		c0.6,0,1.4-0.3,2-0.5c-0.1,0,1.3-0.6,1-0.6c0.4-0.2,1-0.3,1-0.3c0.1-0.1,0.4-0.2,1.5-0.2c0.4-0.1,1.1,0.1,1.3,0.2
		c0.2,0.1-0.6-0.2-0.3-0.1c-1.7-0.3-3.3,0.1-4.7,0.8c-0.7,0.3-1.5,0.5-2.2,0.4l-0.1,0l0,0c0,0.2,0-0.5,0,0.5l0,0l0.1,0l0.3-0.1
		l0.6-0.2c0.4,0,0.8-0.1,1.2-0.1c0.5-0.1,2.6,0,4.9,0.1l0.8,0c0.1-0.2,0.4,0.4,0.3-0.4h-0.4h-1.6c-1,0-1.8,0-2.3,0h-0.2
		c-1,0-2.3,0-3.2,0l-1.2,0c0.2,0,0.4,0,0.5,0c-0.4,0-0.8,0-1,0c-0.9,0-0.4,0,0,0.1c0.2,0-0.1,0,0.3,0.1c-0.3,0-0.4,0-0.7,0
		c0,0,0.9,0,0.7,0c-0.3,0-0.6,0-0.8,0c0.1,0,1,0,0.9,0c-0.1,0-0.8,0-0.8,0c0,0,0.3,0,0.4,0c-0.8,0-1.3,0-0.5,0.1c-0.3,0-0.6,0-0.9,0
		h0c0.1,0,0.4,0,0.5,0l-0.5,0l0.1,0l0.4,0h-0.3l0.3,0c0.4,0,0.8,0,1,0L29.4,17.9z"/>
	<path class="st0" d="M28.1,27.9C28.1,27.8,28,27.8,28.1,27.9c0.5,0,0.9,0,1.4,0l0,0l1.2,0l2.2,0c0,0,0,0,0,0c0.3,0,0.7,0,1.1,0
		l0.2,0c0,0,0.1,0,0.1,0c0.2,0,0.4,0,0.5,0c0.9-0.2,2.5,0.3,2.9-0.4c-1.1,0-2.2,0-3.4-0.1l-1.5,0c-0.7,0-1.6-0.1-2.3-0.1
		c0.1,0-1.6,0.1-1.2,0.2c-0.5,0-1.1,0-1.2,0c-0.1,0.1-0.5,0.1-1.6,0.3c-0.5,0.1-1.2,0.2-1.3,0.2c-0.3,0.1,0.6-0.1,0.4,0
		c3.4-0.7,6.9-0.3,10.4-0.2c0.2-0.2,1.2,0.5,1.8-0.5c-1,0-2.2,0-3.4,0c-2.5,0-5,0-6.1,0h-0.2c-1.1,0-2.5,0-3.5,0l-1.3,0
		c0.2,0,0.4,0,0.6,0c-0.5,0-0.9,0-1.1,0c-1,0-0.4,0.1,0,0.1c0.3,0-0.1,0,0.3,0.1c-0.3,0-0.5,0-0.8,0c0,0,0.9,0,0.7,0
		c-0.3,0-0.6,0-0.9,0c0.1,0,1.1,0,1,0c-0.2,0-0.9,0-0.9,0c0,0,0.3,0,0.4,0c-0.9,0-1.5,0-0.6,0.1c-0.3,0-0.7,0-1,0h0
		c0.2,0,0.4,0,0.6,0l-0.5,0l0.1,0l0.4,0l-0.4,0l0.3,0c0.4,0,0.8,0,1.1,0L28.1,27.9z"/>
	<path class="st0" d="M29.5,6.2C29.5,6.2,29.5,6.3,29.5,6.2c-0.2,0-0.3-0.1-0.4-0.1l0,0l-0.4-0.1l-0.4,0c0,0.2-0.3-0.4,0,0.4
		l0.1-0.1c0,0,0,0,0,0c0.1,0,0.2-0.1,0.3-0.1l0.1,0l0,0c0-0.2,0.2,0.4,0-0.5c-0.1,0-0.4,0.1-0.4,0c0,0.1-0.2-0.2-0.1,0.2l0.1-0.3
		c0.1-0.4,0.1-0.8,0.2-1.1c0-0.1,0.2-0.3,0.1-0.3c0.1,0.2,0.2,0.5,0.3,0.7c0-0.1,0.3,0.4,0.3,0.3c0,0.1,0.1,0.3,0.1,0.3
		c0.1,0,0.1,0,0.4,0.4C30,6.1,30,6.5,30,6.5c0,0.1,0-0.2,0-0.1c-0.2-0.9-0.4-0.9-0.6-1.7C29.2,4.5,29.6,4,28.7,4
		c-0.3,0.3-0.3,0.6-0.4,0.9c0,0.1,0,0.3-0.1,0.6c-0.4,0.8,1.1,1,0.6,0.3c-0.2,0.1-0.4,0.2-0.5,0.3c0,1,0.3,0.3,0.4,0.5
		c0.3,0,0.6,0.1,0.7,0.1l0.1,0c-0.3-0.3-0.2,0.7-0.3,0.8c0,0.1,0,0.3,0,0.5l0-0.2c0,0.2,0,0.3,0,0.4c0,0.3,0,0.1,0.1,0
		c0-0.1,0,0,0.1-0.1c0,0.1,0,0.2,0,0.3c0,0,0-0.3,0-0.2l0,0.3c0,0,0-0.4,0-0.3c0,0.1,0,0.3,0,0.3c0,0,0-0.1,0-0.1
		c0,0.3,0,0.5,0.1,0.2c0,0.1,0,0.2,0,0.3c0-0.1,0-0.1,0-0.2l0,0.2l0,0l0-0.1l0,0.1l0-0.1c0-0.1,0.1-0.3,0.1-0.3
		C29.4,7.5,29.9,7.4,29.5,6.2"/>
	<path class="st0" d="M25.8,25.7C25.8,25.7,25.8,25.8,25.8,25.7c0-0.6,0.1-0.9,0.1-1.4l0,0l0-0.3c-0.1-0.2,0.2,0.2-0.1-0.4l-0.1,0
		l-0.5-0.2c-0.3-0.1-0.7-0.2-1.1-0.2c-0.2,0-0.4,0-0.5,0l-0.3,0c0,1,0.2,0.3,0.2,0.5c0,0,0,0,0,0c0.3,0,0.7,0.1,1.1,0.1l0.2,0
		c0,0,0.1,0,0.1,0c0.2,0,0.3,0,0.5,0c2,0.1,4-0.1,6.2-0.1c0.5,0,0.9,0,1.4,0l0.5,0c0.2-0.2,0.1-0.4,0.2-0.6c0-0.4,0-0.8-0.1-1.2
		c0,0.1-0.4-1.6-0.4-1.2c-0.1-0.5-0.2-1.2-0.2-1.2c0,0-0.1-0.2-0.1-0.4c0.1-0.1-0.4-0.4,0.3-0.4c0,0.2,0,0.5,0,0.8
		c0,0.4-0.1,1.2-0.1,1.4c0,0.3,0.1-0.6,0.1-0.4c0-0.5,0.1-0.9,0.1-1.3l0-0.3l0-0.2c0.1,0-0.9,0-0.5,0v0v0l0,0l0,0l0,0.1
		c0,0.2,0,0.5,0.1,0.7c0.1,0.9,0.3,1.8,0.5,2.6c0.1,0.4,0.1,0.9,0.1,1.3c0.6,0.1-0.5,0-0.7-0.1c-0.8-0.1-1.7-0.1-2.5-0.1
		c-0.6,0-2.8,0.1-5,0c-0.5,0.2-1.2-0.6-1.6,0.3c0.5-0.1,1-0.1,1.5,0.1c0.2,0,0.5,0.1,0.7,0.2c0-0.4-0.1,0.3-0.1,0.4
		c-0.1,0.4-0.1,0.8-0.1,1.1l0,0.2l0,0.2c0.8-0.2,0.2-0.2,0.4-0.3l-0.1-0.4l-0.2-0.9c-0.1-0.6-0.1-1.2-0.2-1.7c0-0.5,0-0.9-0.1-1.4
		c0,0.2,0,0.4,0,0.6c0-0.5,0-0.9,0-1.1c0-1,0-0.4-0.1-0.1c0,0.3,0-0.1-0.1,0.3c0-0.3,0-0.5,0-0.8c0,0,0,1,0,0.7c0-0.3,0-0.6,0-1
		c0,0.1-0.1,1.1-0.1,1c0-0.2,0.1-0.9,0-0.9c0,0,0,0.3,0,0.5c0.1-1,0.1-1.5,0-0.6c0-0.3,0.1-0.7,0.1-1.1v0c0,0.2,0,0.4,0,0.6l0-0.6
		l0,0.1l0,0.4l0-0.4l0,0.3c0,0.4-0.1,0.9-0.1,1.1c0,1-0.1,1.9,0,2.9c0,0.5,0,1,0.2,1.4l0.1,0.7l0.1,0.4l0,0.2
		C26.2,25.8,25.6,25.8,25.8,25.7"/>
	<path class="st0" d="M33.9,22.1C33.9,22.1,33.9,22.1,33.9,22.1c0,0.2,0,0.3,0,0.5l0,0l0,0.4l0.1,0.8c0,0,0,0,0,0c0,0.1,0,0.3,0,0.4
		l0,0.1l0,0l0,0.2c0.1,0.4,0.2,0.8,0.3,1.1c0.2,0.1-0.1,0.6,0.4,0.4l0-0.6l0-0.5c0-0.3,0-0.6,0-0.8c0-0.1-0.5-0.2-0.4-0.2
		c-0.1-0.1-0.2-0.4-0.2-0.4c-0.1,0-0.2-0.1-0.2-0.6c0-0.2,0-0.5,0-0.5c0-0.1-0.1,0.2-0.1,0.1c0,0.3,0,0.7,0.1,1
		c-0.1,0.3,0.7,0.9,0.5,0.6c0,0.6,0,1.3,0,1.9c0.9,0,0.2-0.3,0.3-0.6c-0.1-0.3-0.2-0.7-0.2-1.1c-0.1-0.8-0.1-1.8-0.1-2.1v-0.1
		c0-0.4,0-0.9,0-1.3l0-0.5l0,0.2c0-0.2,0-0.3,0-0.4c0-0.3,0-0.1-0.1,0c0,0.1,0,0-0.1,0.1c0-0.1,0-0.2,0-0.3c0,0,0,0.3,0,0.3V20
		c0,0,0,0.4,0,0.4c0-0.1,0-0.3,0-0.3c0,0,0,0.1,0,0.2c0-0.3,0-0.5-0.1-0.2c0-0.1,0-0.3,0-0.4c0,0.1,0,0.2,0,0.2l0-0.2l0,0l0,0.1
		l0-0.1l0,0.1c0,0.1,0,0.3,0,0.4L33.9,22.1z"/>
	<path class="st0" d="M22.1,23.3c-0.2,0-0.8-0.4-1.1,0.1c-0.2,0.3-0.1,0.8-0.1,1.5c0,1.5,3.5,1.2,5.7,1c0.8-0.1-0.3-0.2,0.6-0.2
		c-1.7,0-4.6-0.3-4.9-0.7C22.3,24.2,22.4,23.3,22.1,23.3"/>
	<path class="st0" d="M37.4,22.9c-0.1-1,1.6-0.5,1.5,0.1c-0.1,0.4-0.2,1.4-0.2,1.8c-0.2,1.5-4.5,1.2-6.1,1.1c-0.7,0,0.3-0.3-0.4-0.3
		c1.7,0,3.1-0.7,4.8-0.6c0.6-0.7,0.5-0.9,0.5-1.8C37.4,23.8,37.4,22.4,37.4,22.9"/>
	<path class="st0" d="M26.7,34.2C26.7,34.2,26.7,34.1,26.7,34.2c0,0.4,0,0.7,0,1.1l0,0l0,0.9l0.1,1.6c0,0,0,0,0,0
		c0.2,0.2-0.4,0.5,0.5,0.9l0-0.1c0,0,0,0,0-0.1l0.1-0.4c0.2-1.6,0.2-3.2,0.1-5L27.4,32c0-0.5,0-1.2,0-1.7c-0.1,0.1-0.1-1.2-0.2-0.9
		c0-0.3,0-0.9,0-0.9c0-0.1-0.1-0.3-0.2-1.3c0-0.4,0-0.9,0-1c0-0.2,0,0.5,0,0.3c0,2.7,0.2,5.2,0.2,7.9c0,0.4,0,2.2-0.3,4
		c0.2,0.1-0.5,0.3,0.4,0.2l0-0.3l0-0.7c0-0.5,0-0.9,0-1.3c0-0.8,0-1.5-0.1-1.9l0-0.1c0-0.9,0-1.9-0.1-2.6l-0.1-1c0,0.2,0,0.3,0,0.4
		c0-0.3,0-0.7,0-0.8c0-0.7-0.1-0.3-0.1,0c0,0.2,0-0.1-0.1,0.2c0-0.2,0-0.3,0-0.6c0,0,0,0.7,0,0.5l0-0.7c0,0.1,0,0.8,0,0.8
		c0-0.1,0-0.6,0-0.7c0,0,0,0.2,0,0.3c0-0.7,0-1.1-0.1-0.5c0-0.2,0-0.5,0-0.8v0c0,0.1,0,0.3,0,0.4l0-0.4l0,0.1l0,0.3l0-0.3l0,0.2
		c0,0.3,0,0.6,0,0.8C26.6,31.4,26.6,32.8,26.7,34.2"/>
	<path class="st0" d="M31.6,35.6C31.6,35.6,31.6,35.5,31.6,35.6c0.1,0.5,0.2,0.9,0.3,1.4l0,0l0.2,1.1l0,0.1c0.2,0-0.5,0.1,0.5,0
		l0-0.1v-0.3l0-0.5l0-1.1c0,0,0,0,0,0c0-0.3,0-0.7,0-1.1V35c0,0,0-0.1,0-0.1c0-0.2,0-0.4,0-0.5c0-1-0.1-2.1-0.2-3.2
		c-0.1-0.5-0.2-1.1-0.3-1.6c-0.1-0.1,0.2-0.4-0.3-0.3l0,0.4l0,0.9l0,1.4c0,0.7,0,1.6-0.1,2.3c0.1-0.1,0,1.5,0.1,1.2
		c0,0.5,0,1.1,0,1.2c0,0.1,0.1,0.5,0.1,1.7c0,0.5,0,1.2,0,1.4c0,0.3,0-0.6,0-0.3c0-1.7,0.1-3.4,0.1-5.2l0-2.6l0-1.3v-0.7v-0.3
		c-0.9,0.2-0.2,0.2-0.4,0.3c0.2,0.5,0.5,2.8,0.5,5.2c0.2,1.2-0.5,2.6,0.4,3.4c-0.2-1.1-0.4-1.9-0.4-2.4l0-0.2
		c-0.3-1.1-0.2-2.4-0.1-3.4l0-1.3c0,0.2,0,0.4-0.1,0.6c0-0.5,0-0.9,0-1.1c-0.1-1-0.1-0.4-0.1,0c0,0.3,0-0.1-0.1,0.3
		c0-0.3,0-0.5,0-0.7c0,0,0,0.9,0,0.7c0-0.3,0-0.6,0-0.9c0,0.1,0,1,0,1c0-0.2,0-0.8,0-0.9c0,0,0,0.3,0,0.4c-0.1-0.9-0.2-1.4-0.1-0.6
		c0-0.3-0.1-0.7-0.2-1l0,0c0,0.1,0.1,0.4,0.1,0.5l-0.1-0.5l0,0.1l0.1,0.4l-0.1-0.3l0,0.3c0.1,0.4,0.1,0.8,0.1,1
		C31.6,31.9,31.1,33.8,31.6,35.6"/>
	<path class="st0" d="M29.7,33C29.7,33,29.6,33,29.7,33c0.2-0.1,0.4-0.1,0.7,0l0,0c0.2,0,0.3,0.1,0.5,0.2c0.3,0.1,0.6,0.3,0.8,0.6
		c0,0,0,0,0,0c0.1,0.1,0.2,0.3,0.2,0.5l0,0.1l0,0c0,0.1,0.1,0.2,0.1,0.3l0.1,0.4l0,0.1l0,0v0c-0.1,0,1-0.1,0.5-0.1h0l0,0l0,0l0-0.1
		l-0.1-0.2c-0.1-0.3-0.2-0.6-0.3-0.9c-0.3-0.6-0.6-1.2-1.1-1.6c-0.2-0.2-0.4-0.4-0.7-0.5c-0.3-0.2-0.8-0.4-1.2-0.5
		c0,0.1-0.8,0.1-0.7,0.2c-0.2,0-0.6,0.1-0.6,0.1c0,0.1-0.2,0.2-0.7,0.6c-0.2,0.1-0.5,0.4-0.5,0.5c-0.1,0.1,0.3-0.2,0.2-0.1
		c1.3-1.4,3.4-0.9,4.3,0.8c0.1,0.1,0.3,0.5,0.5,1c0.1,0.2,0.2,0.5,0.2,0.8l0,0.1l0,0l0,0c-0.1,0,1.1-0.1,0.6-0.1v0v0v0l0-0.1l0-0.3
		c0-0.2,0-0.4-0.1-0.6c-0.3-1.8-2.3-2.1-2.8-1.9l-0.1,0c-0.7,0.1-1.4,0.4-1.8,0.9c-0.2,0.2-0.4,0.4-0.5,0.7c0.1-0.1,0.2-0.2,0.2-0.2
		c-0.2,0.2-0.3,0.5-0.4,0.5c-0.2,0.6,0,0.3,0.1,0.1c0.1-0.1,0,0.1,0.2-0.1c-0.1,0.1-0.1,0.2-0.2,0.4c0,0,0.2-0.5,0.2-0.4
		c-0.1,0.1-0.1,0.3-0.2,0.5c0-0.1,0.2-0.5,0.3-0.5c-0.1,0.1-0.2,0.4-0.2,0.4c0,0,0.1-0.1,0.1-0.2c-0.2,0.5-0.1,0.8,0,0.3
		c-0.1,0.1-0.1,0.4-0.1,0.5l0,0c0-0.1,0-0.2,0-0.3l0,0.3l0,0l0-0.2l0,0.2l0.1-0.1c0-0.2,0.2-0.4,0.2-0.5
		C27.9,33.7,28.8,33.2,29.7,33"/>
	<path class="st0" d="M28.9,27.8C28.9,27.8,28.9,27.8,28.9,27.8c0.2-0.1,0.4-0.1,0.5-0.1l0,0c0.2,0,0.3,0,0.4,0
		c0.3,0.1,0.5,0.1,0.8,0.3c0,0,0,0,0,0c0.1,0.1,0.2,0.2,0.3,0.3l0.1,0.1l0,0l0.1,0.2c0.1,0.2,0.2,0.4,0.3,0.6c0.2,0-0.3,0.2,0.4,0
		l-0.1-0.2c0-0.1-0.1-0.3-0.2-0.4c-0.3-0.6-0.9-0.7-1.4-0.7c-0.2,0-0.4,0-0.6,0c-0.3,0-0.7,0.1-1,0.1c0,0-0.7,0.3-0.5,0.3
		c-0.2,0.1-0.4,0.2-0.4,0.3c0,0.1-0.1,0.2-0.5,0.6c-0.2,0.1-0.3,0.4-0.3,0.4c0,0.1,0.1-0.1,0.1-0.1c0.8-1.1,2.5-1.4,3.9-1
		c0.1,0.1,0.4,0.2,0.5,0.5l0.1,0.3l0,0.1c0.8-0.2,0.2-0.1,0.4-0.2L31.9,29c-0.1-0.3-0.3-0.5-0.4-0.8c-0.7-1.2-2.2-1.1-2.6-0.9
		l-0.1,0c-0.5,0.2-1.1,0.5-1.4,0.8l-0.5,0.4l0.2-0.1c-0.2,0.1-0.3,0.3-0.4,0.3c-0.3,0.3-0.1,0.2,0,0.1c0.1-0.1,0,0.1,0.1-0.1
		c-0.1,0.1-0.1,0.1-0.2,0.2c0,0,0.3-0.3,0.2-0.2l-0.3,0.3c0,0,0.3-0.3,0.3-0.3c0,0.1-0.3,0.2-0.3,0.3c0,0,0.1-0.1,0.1-0.1
		c-0.3,0.3-0.4,0.5-0.2,0.2c-0.1,0.1-0.2,0.2-0.3,0.3l0,0c0-0.1,0.1-0.1,0.2-0.2l-0.2,0.2l0,0l0.1-0.1l-0.1,0.1l0.1-0.1
		c0.1-0.1,0.3-0.2,0.4-0.3C27.5,28.5,28.2,28,28.9,27.8"/>
	<path class="st0" d="M24.3,35.3C24.3,35.3,24.3,35.3,24.3,35.3c0-0.2,0-0.3,0-0.4l0,0v-0.3l0-0.6c0,0,0,0,0,0c0-0.1,0-0.2,0-0.3
		l0-0.1l0,0l0-0.2c0-0.6-0.1-1.2-0.1-1.9l0-0.4c0-0.2,0.1-0.5,0.1-0.7c-0.1,0,0-0.5-0.1-0.4c0-0.1,0.1-0.3,0.1-0.3
		c0,0-0.1-0.2,0-0.5c0-0.1,0.1-0.3,0.1-0.4c0-0.1-0.1,0.2-0.1,0.1c-0.4,1-0.5,2.1-0.5,3.1c0,0.4,0.1,2.8,0.1,3.4l0,0.1
		c0,0.3,0,0.7,0.1,1l0.1,0.4l0-0.2c0,0.1,0,0.3,0,0.3c0,0.3,0.1,0.1,0.1,0c0-0.1,0,0,0.1-0.1c0,0.1,0,0.1,0,0.2c0,0,0-0.3,0-0.2
		l0,0.3c0,0,0-0.3,0-0.3c0,0.1,0,0.3,0,0.3c0,0,0-0.1,0-0.1c0,0.3,0,0.4,0.1,0.2v0.3l0-0.2v0.2l0,0l0-0.1l0,0.1l0-0.1
		c0-0.1,0-0.2,0-0.3C24.3,36.3,24.3,35.8,24.3,35.3"/>
	<path class="st0" d="M21.9,30.1C21.9,30.1,21.9,30.1,21.9,30.1c0,0.1,0,0.3,0,0.4l0,0l0,0.3l0,0.6c0,0,0,0,0,0c0,0.1,0,0.2,0,0.3
		v0.1l0,0v0.1c0,0.6,0.1,1.2,0.1,1.8l0,0.4c0,0.2,0,0.4,0,0.6c0.1,0,0.1,0.4,0.1,0.3c0,0.1,0,0.3,0,0.3c0,0,0.1,0.1,0.1,0.5
		c0,0.1,0,0.3,0,0.4c0,0.1,0-0.2,0-0.1c0-1,0-1.9,0-2.9c0-0.3-0.1-2.6-0.1-3.2l0-0.1c0-0.3,0-0.7-0.1-1l-0.1-0.4l0,0.2
		c0-0.1,0-0.3,0-0.3c0-0.3-0.1-0.1-0.1,0c0,0.1,0,0-0.1,0.1l0-0.2c0,0,0,0.3,0,0.2l0-0.3c0,0,0,0.3,0,0.3c0,0,0-0.2,0-0.2
		c0,0,0,0.1,0,0.1c0-0.3-0.1-0.4-0.1-0.2l0-0.3v0.2l0-0.1l0,0v0.1l0-0.1l0,0.1c0,0.1,0,0.2,0,0.3L21.9,30.1z"/>
	<path class="st0" d="M22.2,28.4L22.2,28.4c0.1,0,0.1,0,0.1,0l0,0l0.1,0l0.2,0l0,0l0.1,0h0l0,0l0.1,0c0.2,0,0.4-0.1,0.7-0.2l0.1,0
		l0.2,0c0-0.1,0.1-0.1,0.1-0.2c0,0,0.1,0,0.1,0c0-0.1,0-0.1,0.1-0.2c0,0,0.1,0,0.1,0c0,0-0.1,0,0,0c-0.3,0-0.7,0.1-1,0.1
		c-0.1,0.1-0.9,0.1-1.1,0h0c-0.1,0-0.2-0.1-0.3-0.1l-0.1,0l0,0c0,0-0.1,0-0.1,0c-0.1,0-0.1,0,0,0.1c0,0,0,0,0,0.1l-0.1,0
		c0,0,0.1,0,0.1,0l-0.1,0c0,0,0.1,0,0.1,0.1c0,0-0.1-0.1-0.1,0c0,0,0,0,0,0c-0.1,0-0.2,0-0.1,0l-0.1,0v0l0.1,0l-0.1,0l0,0l0,0l0,0
		l0,0c0,0,0.1,0.1,0.1,0.1L22.2,28.4z"/>
	<path class="st0" d="M22.2,30.2L22.2,30.2c0.1,0,0.1,0,0.1,0l0,0l0.1,0l0.2,0l0,0l0.1,0h0l0,0l0.1,0c0.2,0,0.4-0.1,0.7-0.2l0.1-0.1
		l0.2,0c0-0.1,0.1-0.1,0.1-0.2c0,0,0.1,0,0.1,0c0-0.1,0-0.1,0.1-0.2c0,0,0.1,0,0.1,0c0,0-0.1,0,0,0c-0.3,0-0.7,0.1-1,0.1
		c-0.1,0.1-0.9,0.1-1.1,0l0,0c-0.1,0-0.2-0.1-0.3-0.1l-0.1,0l0,0c0,0-0.1,0-0.1,0c-0.1,0-0.1,0,0,0.1c0,0,0,0,0,0.1l-0.1,0
		c0,0,0.1,0,0.1,0l-0.1,0c0,0,0.1,0,0.1,0.1c0,0-0.1-0.1-0.1,0c0,0,0,0,0,0c-0.1,0-0.2,0-0.1,0l-0.1,0l0.1,0l-0.1,0l0,0l0,0l0,0l0,0
		c0,0,0.1,0.1,0.1,0.1L22.2,30.2z"/>
	<path class="st0" d="M22.2,31.9L22.2,31.9c0.1,0,0.1,0,0.1,0l0,0l0.1,0l0.2,0l0,0l0.1,0h0l0,0l0.1,0c0.2,0,0.4-0.1,0.7-0.2l0.1-0.1
		l0.2,0c0-0.1,0.1-0.1,0.1-0.2c0,0,0.1,0,0.1,0c0-0.1,0-0.1,0.1-0.2c0,0,0.1,0,0.1,0c0,0-0.1,0,0,0c-0.3,0-0.7,0.1-1,0.1
		c-0.1,0.1-0.9,0.1-1.1,0h0c-0.1,0-0.2-0.1-0.3-0.1l-0.1,0l0,0c0,0-0.1,0-0.1,0c-0.1,0-0.1,0,0,0.1c0,0,0,0,0,0.1l-0.1,0
		c0,0,0.1,0,0.1,0l-0.1,0c0,0,0.1,0,0.1,0.1c0,0-0.1,0-0.1,0c0,0,0,0,0,0c-0.1,0-0.2,0-0.1,0l-0.1,0l0.1,0l-0.1,0l0,0l0,0l0,0l0,0
		c0,0,0.1,0.1,0.1,0.1L22.2,31.9z"/>
	<path class="st0" d="M22.8,33.6L22.8,33.6c0.1,0,0.1,0,0.1,0l0,0l0.1,0l0.2,0l0,0l0.1,0l0,0l0,0l0.1,0c0.2,0,0.4-0.1,0.7-0.2
		l0.1-0.1l0.2,0c0-0.1,0.1-0.1,0.1-0.2c0,0,0.1,0,0.1,0c0,0,0-0.1,0.1-0.2c0,0,0.1,0,0.1,0c0,0-0.1,0,0,0c-0.3,0-0.7,0.1-1,0.1
		c-0.1,0.1-0.9,0.1-1.1,0h0c-0.1,0-0.2-0.1-0.3-0.1l-0.1,0l0,0c0,0-0.1,0-0.1,0c-0.1,0-0.1,0,0,0.1c0,0,0,0,0,0.1l-0.1,0
		c0,0,0.1,0,0.1,0l-0.1,0c0,0,0.1,0,0.1,0.1c0,0-0.1-0.1-0.1,0c0,0,0,0,0,0c-0.1,0-0.2,0-0.1,0l-0.1,0l0.1,0l-0.1,0l0,0l0,0l0,0l0,0
		c0,0,0.1,0.1,0.1,0.1L22.8,33.6z"/>
	<path class="st0" d="M22.8,35.2L22.8,35.2c0.1,0,0.1,0,0.1,0l0,0l0.1,0l0.2,0l0,0l0.1,0l0,0l0,0l0.1,0c0.2,0,0.4-0.1,0.7-0.2
		l0.1-0.1l0.2,0c0-0.1,0.1-0.1,0.1-0.2c0,0,0.1,0,0.1,0c0-0.1,0-0.1,0.1-0.2c0,0,0.1,0,0.1,0c0,0-0.1,0,0,0c-0.3,0-0.7,0.1-1,0.1
		c-0.1,0.1-0.9,0.1-1.1,0h0c-0.1,0-0.2-0.1-0.3-0.1l-0.1,0l0,0c0,0-0.1,0-0.1,0c-0.1,0-0.1,0,0,0.1c0,0,0,0,0,0.1l-0.1,0
		c0,0,0.1,0,0.1,0l-0.1,0c0,0,0.1,0,0.1,0.1c0,0-0.1-0.1-0.1,0c0,0,0,0,0,0c-0.1,0-0.2,0-0.1,0l-0.1,0l0.1,0l-0.1,0l0,0l0,0l0,0l0,0
		c0,0,0.1,0.1,0.1,0.1L22.8,35.2z"/>
	<path class="st0" d="M22.8,37L22.8,37c0.1,0,0.1,0,0.1,0l0,0l0.1,0l0.2,0l0,0l0.1,0l0,0l0,0l0.1,0c0.2,0,0.4-0.1,0.7-0.2l0.1-0.1
		l0.2,0c0-0.1,0.1-0.1,0.1-0.2c0,0,0.1,0,0.1,0c0-0.1,0-0.1,0.1-0.2c0,0,0.1,0,0.1,0c0,0-0.1,0,0,0c-0.3,0-0.7,0.1-1,0.1
		c-0.1,0.1-0.9,0.1-1.1,0h0c-0.1,0-0.2-0.1-0.3-0.1l-0.1,0l0,0c0,0-0.1,0-0.1,0c-0.1,0-0.1,0,0,0.1c0,0,0,0,0,0.1l-0.1,0
		c0,0,0.1,0,0.1,0l-0.1,0c0,0,0.1,0,0.1,0.1c0,0-0.1-0.1-0.1,0c0,0,0,0,0,0c-0.1,0-0.2,0-0.1,0l-0.1,0l0.1,0l-0.1,0l0,0l0,0l0,0l0,0
		c0,0,0.1,0.1,0.1,0.1L22.8,37z"/>
	<path class="st0" d="M36.4,35.3C36.4,35.3,36.4,35.3,36.4,35.3c0-0.2,0-0.3,0-0.4l0,0l0-0.3l0-0.6c0,0,0,0,0,0c0-0.1,0-0.2,0-0.3
		l0-0.1l0,0l0-0.2c0-0.6-0.1-1.2-0.1-1.9l0-0.4c0-0.2,0-0.5,0.1-0.7c-0.1,0,0-0.5-0.1-0.4c0-0.1,0.1-0.3,0.1-0.3c0,0-0.1-0.2,0-0.5
		c0-0.1,0.1-0.3,0.1-0.4c0-0.1-0.1,0.2-0.1,0.1c-0.4,1-0.5,2.1-0.5,3.1c0,0.4,0.1,2.8,0.1,3.4l0,0.1c0,0.3,0,0.7,0.1,1l0.1,0.4
		l0-0.2c0,0.1,0,0.3,0,0.3c0,0.3,0.1,0.1,0.1,0c0-0.1,0,0,0.1-0.1V37c0,0,0-0.3,0-0.2l0,0.3c0,0,0-0.3,0-0.3c0,0.1,0,0.3,0,0.3
		c0,0,0-0.1,0-0.1c0,0.3,0,0.4,0.1,0.2l0,0.3h0l0-0.2l0,0.2l0,0v-0.1l0,0.1l0-0.1c0-0.1,0-0.2,0-0.3C36.5,36.3,36.5,35.8,36.4,35.3"
		/>
	<path class="st0" d="M34.1,30.1C34.1,30.1,34.1,30.1,34.1,30.1c0,0.1,0,0.3,0,0.4l0,0l0,0.3l0,0.6c0,0,0,0,0,0c0,0.1,0,0.2,0,0.3
		v0.1l0,0v0.1c0,0.6,0.1,1.2,0.1,1.8l0,0.4c0,0.2,0,0.4,0,0.6c0.1,0,0.1,0.4,0.1,0.3c0,0.1,0,0.3,0,0.3c0,0,0.1,0.1,0.1,0.5
		c0,0.1,0,0.3,0,0.4c0,0.1,0-0.2,0-0.1c0-1,0-1.9,0-2.9c0-0.3-0.1-2.6-0.1-3.2l0-0.1c0-0.3,0-0.7-0.1-1l-0.1-0.4l0,0.2
		c0-0.1,0-0.3,0-0.3c0-0.3-0.1-0.1-0.1,0c0,0.1,0,0-0.1,0.1l0-0.2c0,0,0,0.3,0,0.2l0-0.3c0,0,0,0.3,0,0.3c0,0,0-0.2,0-0.2
		c0,0,0,0.1,0,0.1c0-0.3-0.1-0.4-0.1-0.2l0-0.3h0l0,0.2l0-0.1l0,0v0.1v-0.1l0,0.1c0,0.1,0,0.2,0,0.3L34.1,30.1z"/>
	<path class="st0" d="M34.4,28.4L34.4,28.4c0.1,0,0.1,0,0.1,0l0,0l0.1,0l0.2,0l0,0l0.1,0h0l0,0l0.1,0c0.2,0,0.4-0.1,0.7-0.2l0.1,0
		l0.2,0c0-0.1,0.1-0.1,0.1-0.2c0,0,0.1,0,0.1,0c0-0.1,0-0.1,0.1-0.2c0,0,0.1,0,0.1,0c0,0-0.1,0,0,0c-0.3,0-0.7,0.1-1,0.1
		c-0.1,0.1-0.9,0.1-1.1,0h0c-0.1,0-0.2-0.1-0.3-0.1l-0.1,0l0,0c0,0-0.1,0-0.1,0c-0.1,0-0.1,0,0,0.1c0,0,0,0,0,0.1l-0.1,0
		c0,0,0.1,0,0.1,0l-0.1,0c0,0,0.1,0,0.1,0.1c0,0-0.1,0-0.1,0c0,0,0,0,0,0c-0.1,0-0.2,0-0.1,0l-0.1,0v0l0.1,0l-0.1,0l0,0l0,0l0,0l0,0
		c0,0,0.1,0.1,0.1,0.1L34.4,28.4z"/>
	<path class="st0" d="M34.4,30.2L34.4,30.2c0.1,0,0.1,0,0.1,0l0,0l0.1,0l0.2,0l0,0l0.1,0h0l0,0l0.1,0c0.2,0,0.4-0.1,0.7-0.2l0.1-0.1
		l0.2,0c0-0.1,0.1-0.1,0.1-0.2c0,0,0.1,0,0.1,0c0-0.1,0-0.1,0.1-0.2c0,0,0.1,0,0.1,0c0,0-0.1,0,0,0c-0.3,0-0.7,0.1-1,0.1
		c-0.1,0.1-0.9,0.1-1.1,0l0,0c-0.1,0-0.2-0.1-0.3-0.1l-0.1,0l0,0c0,0-0.1,0-0.1,0c-0.1,0-0.1,0,0,0.1c0,0,0,0,0,0.1l-0.1,0
		c0,0,0.1,0,0.1,0l-0.1,0c0,0,0.1,0,0.1,0.1c0,0-0.1-0.1-0.1,0c0,0,0,0,0,0c-0.1,0-0.2,0-0.1,0l-0.1,0l0.1,0l-0.1,0l0,0l0,0l0,0l0,0
		c0,0,0.1,0.1,0.1,0.1L34.4,30.2z"/>
	<path class="st0" d="M34.4,31.9L34.4,31.9c0.1,0,0.1,0,0.1,0l0,0l0.1,0l0.2,0l0,0l0.1,0h0l0,0l0.1,0c0.2,0,0.4-0.1,0.7-0.2l0.1-0.1
		l0.2,0c0-0.1,0.1-0.1,0.1-0.2c0,0,0.1,0,0.1,0c0-0.1,0-0.1,0.1-0.2c0,0,0.1,0,0.1,0c0,0-0.1,0,0,0c-0.3,0-0.7,0.1-1,0.1
		c-0.1,0.1-0.9,0.1-1.1,0h0c-0.1,0-0.2-0.1-0.3-0.1l-0.1,0l0,0c0,0-0.1,0-0.1,0c-0.1,0-0.1,0,0,0.1c0,0,0,0,0,0.1l-0.1,0
		c0,0,0.1,0,0.1,0l-0.1,0c0,0,0.1,0,0.1,0.1c0,0-0.1,0-0.1,0c0,0,0,0,0,0c-0.1,0-0.2,0-0.1,0l-0.1,0l0.1,0l-0.1,0l0,0l0,0l0,0l0,0
		c0,0,0.1,0.1,0.1,0.1L34.4,31.9z"/>
	<path class="st0" d="M34.9,33.6L34.9,33.6c0.1,0,0.1,0,0.1,0l0,0l0.1,0l0.2,0l0,0l0.1,0l0,0l0,0l0.1,0c0.2,0,0.4-0.1,0.7-0.2
		l0.1-0.1l0.2,0c0-0.1,0.1-0.1,0.1-0.2c0,0,0.1,0,0.1,0c0,0,0-0.1,0.1-0.2c0,0,0.1,0,0.1,0c0,0-0.1,0,0,0c-0.3,0-0.7,0.1-1,0.1
		c-0.1,0.1-0.9,0.1-1.1,0h0c-0.1,0-0.2-0.1-0.3-0.1l-0.1,0l0,0c0,0-0.1,0-0.1,0c-0.1,0-0.1,0,0,0.1c0,0,0,0,0,0.1l-0.1,0
		c0,0,0.1,0,0.1,0l-0.1,0c0,0,0.1,0,0.1,0.1c0,0-0.1-0.1-0.1,0c0,0,0,0,0,0c-0.1,0-0.2,0-0.1,0l-0.1,0l0.1,0l-0.1,0l0,0l0,0l0,0l0,0
		c0,0,0.1,0.1,0.1,0.1L34.9,33.6z"/>
	<path class="st0" d="M34.9,35.2L34.9,35.2c0.1,0,0.1,0,0.1,0l0,0l0.1,0l0.2,0l0,0l0.1,0l0,0l0,0l0.1,0c0.2,0,0.4-0.1,0.7-0.2
		l0.1-0.1l0.2,0c0-0.1,0.1-0.1,0.1-0.2c0,0,0.1,0,0.1,0c0-0.1,0-0.1,0.1-0.2c0,0,0.1,0,0.1,0c0,0-0.1,0,0,0c-0.3,0-0.7,0.1-1,0.1
		c-0.1,0.1-0.9,0.1-1.1,0h0c-0.1,0-0.2-0.1-0.3-0.1l-0.1,0l0,0c0,0-0.1,0-0.1,0c-0.1,0-0.1,0,0,0.1c0,0,0,0,0,0.1l-0.1,0
		c0,0,0.1,0,0.1,0l-0.1,0c0,0,0.1,0,0.1,0.1c0,0-0.1-0.1-0.1,0c0,0,0,0,0,0c-0.1,0-0.2,0-0.1,0l-0.1,0l0.1,0l-0.1,0l0,0l0,0l0,0l0,0
		c0,0,0.1,0.1,0.1,0.1L34.9,35.2z"/>
	<path class="st0" d="M34.9,37L34.9,37c0.1,0,0.1,0,0.1,0l0,0l0.1,0l0.2,0l0,0l0.1,0l0,0l0,0l0.1,0c0.2,0,0.4-0.1,0.7-0.2l0.1-0.1
		l0.2,0c0-0.1,0.1-0.1,0.1-0.2c0,0,0.1,0,0.1,0c0-0.1,0-0.1,0.1-0.2c0,0,0.1,0,0.1,0c0,0-0.1,0,0,0c-0.3,0-0.7,0.1-1,0.1
		c-0.1,0.1-0.9,0.1-1.1,0h0c-0.1,0-0.2-0.1-0.3-0.1l-0.1,0l0,0c0,0-0.1,0-0.1,0c-0.1,0-0.1,0,0,0.1c0,0,0,0,0,0.1l-0.1,0
		c0,0,0.1,0,0.1,0l-0.1,0c0,0,0.1,0,0.1,0.1c0,0-0.1-0.1-0.1,0c0,0,0,0,0,0c-0.1,0-0.2,0-0.1,0l-0.1,0l0.1,0l-0.1,0l0,0l0,0l0,0l0,0
		c0,0,0.1,0.1,0.1,0.1L34.9,37z"/>
	<path class="st0" d="M12.2,41.2c0,0-0.2,0,0.1,0c1.1,0,2.1,0,3.2-0.1l0.1,0c0.8,0,1.9,0,2.6,0.2c0-0.1,0,0-0.1,0.4
		c0.6-0.1-0.2,0-0.3,0l-1.3,0l-2.6,0c0,0,0.1,0-0.1,0c-0.7,0-1.7,0-2.7,0h-0.5c-0.1,0-0.1,0-0.2,0c-0.5,0-0.9,0-1.3,0
		c-0.4,0-0.5,0-1.1,0.1c-0.2,0.2-0.5,0.4-0.7,0.7c0,0.1-0.2,0-0.1,0.5C7.5,43,7.6,43,7.7,43c0.2,0,0.3,0,0.5,0.1l1,0
		c1.3,0,2.6-0.1,3.9-0.1c0.7,0,1.3,0,2,0c0.5,0.1,1.7-0.1,1.5,0.5c-0.7,0.3-2.5,0.1-3.7,0.2c-1.2,0-2.3,0-3.5,0
		c-0.8,0-1.8,0-2.7,0.1c-0.4,0.1-1.1,0-1.3,0.5c-0.1,0.2-0.4,0.4-0.2,0.7L5.6,45c-0.2,0,3.7,0.1,2.9,0c1.1,0,2.7,0,2.8,0
		c0.3-0.1,1.1-0.1,4,0c1.1,0,2.9,0.1,3.3,0.1c0.6,0-1.5-0.1-0.8-0.1c-4.2-0.2-8.4,0-12.4-0.4c-0.4,0.5,0.2-0.4,0.4-0.4
		c0.5-0.1,1-0.1,1.5-0.1c1-0.1,2.1,0,3.1,0c2.2-0.1,4,0.4,6.5-0.2c0-0.1,0.3-0.6-0.3-1c-0.3-0.1-0.7-0.1-1.1-0.1c-0.8,0-1.8,0-3,0
		c-1.2,0-2.4,0.1-3.8,0.1c-0.3,0-0.7,0-0.9-0.1c0.1,0.4,0.4-0.3,0.7-0.4c0.4-0.2,1.3-0.1,2-0.2c1.5,0,2.9,0,4.4,0c0.7,0,1.4,0,2.1,0
		l1,0h0.5c0.5-0.6,0.1-0.3,0.3-0.6c0.2-0.8-0.7-0.7-0.8-0.8l-0.9,0c-0.6,0-1.1,0-1.6,0c-1,0-1.9,0-2.5,0.1l-0.5,0l-1,0h-0.5
		c0.2,0.8,0.2-0.1,0.4,0c0.4-0.5,1.3-0.3,2-0.4c1.5,0,2.9,0.1,4,0.1c0.5,0,1,0,1.6,0c1-0.2,0.3-1.8-0.3-1.4c0.6-0.2,0.9,0.8,0.5,1.2
		c0.3-0.4,0.1-0.7,0.1-1c-0.4-0.4-0.6-0.1-0.8-0.2c-0.5,0-0.8,0-1,0c-2.3,0-1,0-0.1,0.1c0.6,0-0.2,0,0.8,0.1c-0.7,0-1.1,0-1.8,0
		c-0.1,0,2.2,0,1.7,0c-0.7,0-1.5,0-2.2,0c0.3,0,2.5,0,2.4,0.1c-0.4,0-2-0.1-2.2,0c0,0,0.7,0,1.1,0c-2.2,0-3.5,0-1.4,0.1
		c-0.7,0-1.7,0-2.5,0h0c0.4,0,1,0,1.4,0l-1.3,0l0.2,0l1,0l-0.8,0c0.2,0,0.5,0,0.7,0c1,0,2,0,2.5,0l1.6,0c0.1,0,0.9,0,0.4,0
		c0,0.3,0,0.6,0,0.5c-0.9,0-2.2-0.1-3.2-0.1c-1.1,0-2.2-0.1-3.3,0c-0.5,0-1.3,0.2-1.6,0.8l-0.1,0.1c0.3,0.9,0.2,0.3,0.3,0.5l0.2,0
		l0.4,0L12.2,41.2z"/>
	<path class="st0" d="M47,40.7c0,0,0.2,0-0.1,0c-1.1,0-1.9-0.1-3-0.1l-0.1,0c-0.9,0-1.6-0.1-2.7,0.2c-0.4,0.4-0.1,0.8-0.1,0.9l0,0.1
		v0c0.5,0.6,0.2,0.2,0.3,0.3h0.1h0.3l1.2,0l2.4-0.1c0,0-0.1,0,0.1,0c0.7,0,1.6,0,2.5,0l0.4,0c0.1,0,0.1,0,0.1,0c0.4,0,0.8,0,1.2,0
		c0.2,0,0.7,0,0.8,0c0.2,0.2,0.5,0.4,0.6,0.6c0.4-0.1-0.8,0.1-1.2,0.1c-1.2,0-2.4,0-3.6,0c-0.6,0-1.2,0-1.8,0
		c-0.5,0.2-1.5-0.3-1.7,0.8c1,0.9,2.5,0.3,3.7,0.4c1.1-0.1,2.2-0.1,3.2-0.1c0.8,0,1.7,0,2.5,0.1c0.5,0.1,0.9-0.1,1.1,0.4
		c0.2,0.2,0.3,0.3,0.3,0.5c0-0.1-0.3,0-0.5,0.1c0.3,0.1-3.5,0.3-2.7,0.3c-1,0-2.5,0-2.6,0c-0.2,0-1,0.1-3.7,0.2
		c-1.1,0-2.7,0-3.1,0.1c-0.6,0,1.4,0,0.8,0c3.9-0.2,7.7,0,11.7-0.4c0.2-0.2,0.1,0.3,0.5-0.4c0-0.3-0.1-0.4-0.2-0.5
		c-0.3-0.3-0.1-0.3-0.7-0.6c-0.5-0.1-1-0.1-1.5-0.1c-1-0.1-1.9,0-2.9,0c-1.8,0.1-4.2,0-5.5,0.2c-0.7-0.7,1.8-0.5,3.7-0.5
		c1.1,0,2.3,0.1,3.6,0c0.3-0.1,0.6,0.1,1.1-0.2c-0.1-0.9-0.4-0.8-0.7-1.1c-0.8-0.4-1.4-0.2-2.1-0.3c-1.4,0-2.7,0-4.1,0.1
		c-0.7,0-1.3,0-2,0l-0.9,0h-0.5c0.4,0.3,0.1-0.3,0.1-0.3c1.5-0.4,4.1-0.1,5.1-0.1l0.4,0l1,0l0.5,0c0.4-0.8-0.1-0.5-0.1-0.8
		c-0.7-0.7-1.5-0.4-2.1-0.5c-1.4,0-2.7,0.1-3.8,0.1c-0.5,0-1,0.1-1.5,0c-0.2,0-0.1-0.2-0.1-0.5c0,0,0.1-0.5-0.1-0.2l0.4,0l-0.3,0
		h-0.1c0.2-0.3,0.1,0,0.1-0.1l0,0.2c0,0.2,0,0.5,0,0.5c-0.1-0.1,0-0.5,0-0.7c-0.1,0.1,0.4,0,0.5,0c0.4,0,0.8,0,1,0
		c2.2-0.1,0.9-0.1,0.1-0.1c-0.6,0,0.2,0-0.7,0c0.7,0,1,0,1.7,0c0.1,0-2.1,0-1.6,0c0.7,0,1.4,0,2.1,0c-0.2,0-2.3,0-2.2,0
		c0.4,0,1.9,0,2,0c0,0-0.7,0-1,0c2.1,0,3.2,0,1.3-0.1c0.7,0,1.6,0,2.3,0h0c-0.3,0-0.9,0-1.3,0l1.2,0l-0.2,0l-0.9,0l0.8,0
		c-0.2,0-0.4,0-0.7,0c-0.9,0-1.8-0.1-2.3,0l-1.5,0l-0.4,0c-0.2,0.1,0.1-0.2-0.4,0.2l0,0.2c0,0.2-0.2,0.7,0.3,1c1.2,0.1,2.1,0,3.2,0
		c1,0,2.1-0.1,3.1,0c0.5,0,0.9,0.1,1.2,0.6c0.6-0.6-0.3-0.2-0.3-0.3L47,40.7z"/>
	<path class="st0" d="M36.4,42.3C36.4,42.3,36.5,42.4,36.4,42.3c-0.4,0-0.7,0-1.1,0l0,0l-0.9,0l-1.7,0c0,0,0,0,0,0
		c-0.2,0-0.5,0-0.9,0l-0.1,0c0,0,0,0-0.1,0c-0.1,0-0.3,0-0.4,0c-1.6,0-3.3,0.1-5.1,0.1L25,42.5c-0.5,0-1.2,0.1-1.7,0.1
		c0.1,0.1-1.2,0.2-0.9,0.2c-0.3,0-0.9,0-0.9,0c-0.1,0-0.3,0.1-1.3,0.1c-0.4,0-0.9-0.2-1.1-0.2c-0.2,0,0.5,0.2,0.3,0.1
		c2.8,0.6,5.4-0.2,8.1-0.1c0.9,0,7.2-0.1,8.8,0l0.1,0c0.9,0.1,1.9,0.1,2.7,0.1c0.3,0,0.7,0,1,0c-0.2,0-0.3,0-0.4,0
		c0.4,0,0.7,0,0.8,0c0.2-0.1,0.2,0.1,0.4-0.1c0-0.1,0-0.1,0-0.1c0,0.3-0.2,0-0.4,0.1c-0.2,0,0.1,0-0.3-0.1c0.2,0,0.4,0,0.5,0
		c0.1,0-0.7,0-0.5,0c0.1,0,0.7,0.1,0.4-0.1c0.3,0.3-0.6,0-0.5,0.1c0,0,0.9,0,0.5,0c0.1,0,0.1,0-0.1,0c0.3,0-0.5-0.7,0.1,0
		c-0.1-0.2-0.4-0.4-0.5-0.7v0c0.1,0.2,0.2,0.4,0.3,0.4c-0.1-0.1-0.2-0.2-0.3-0.4l0,0.1c0.1,0.2,0.1,0.2,0.2,0.3
		c-0.1-0.1-0.1-0.1-0.2-0.3c0,0.1,0.1,0.2,0.2,0.2c0.1,0.1,0.2,0.3,0.3,0.3c0.1-0.1-0.2,0.2,0.2-0.2l-0.2,0
		C39.2,42.5,37.8,42.4,36.4,42.3"/>
	<path class="st0" d="M24.4,40.5C24.4,40.5,24.4,40.5,24.4,40.5c0.4-0.1,0.7,0,1-0.1l0,0l0.8,0l1.6,0c0,0,0,0,0,0c0.2,0,0.5,0,0.8,0
		l0.1,0c0,0,0,0,0.1,0l0.4,0c1.5-0.1,3,0.1,4.7,0.3l1,0.1c0.5,0.1,1.1,0.1,1.6,0.2c-0.1-0.1,1.1,0,0.9-0.1c0.3,0,0.8,0,0.8,0
		c0.1-0.1,0.4-0.1,1.1-0.3c0.4-0.1,0.4-0.5,0.4-0.6c0-0.1,0,0.3,0,0.2c-0.5,0.7-2.1,0.5-3.2,0.5c-1.2-0.1-2.5-0.3-3.7-0.5
		C32,39.8,26.1,40,24.6,40l-0.1,0c-0.8,0.1-1.8,0.1-2.5,0.1c-0.3,0-0.6,0-0.9-0.1l0.4,0.1c-0.3,0-0.6-0.1-0.7-0.1
		c-0.6-0.3-0.3-0.1-0.1,0.1c0.2,0.1-0.1,0,0.2,0.1c-0.2-0.1-0.3-0.1-0.5-0.2c0,0,0.6,0.3,0.5,0.2c-0.2-0.1-0.4-0.1-0.6-0.3
		c0,0.1,0.7,0.3,0.7,0.3c-0.1,0-0.6-0.2-0.6-0.3c0,0,0.2,0.1,0.3,0.2c-0.7-0.3-0.9-0.8-0.4-0.2c-0.2-0.1-0.4-0.6-0.3-0.8l0,0
		c0,0.1,0,0.4,0.1,0.5c-0.1-0.1-0.1-0.3-0.1-0.5l0,0.1c0,0.1,0,0.3,0.1,0.4c-0.1-0.1-0.1-0.2-0.1-0.3c0,0.1,0,0.2,0,0.3
		c0.1,0.4,0.5,0.6,0.6,0.7C21.8,40.8,23.1,40.6,24.4,40.5"/>
	<path class="st0" d="M26.7,46.1C26.8,46,26.6,46,26.7,46.1c0.6-0.1,1,0,1.6-0.1l0,0c0.4,0,0.9,0,1.3,0l2.5-0.1c0,0,0,0,0.1,0
		c0.3,0,0.8,0,1.3,0l0.2,0c0.1,0,0.1,0,0.1,0c0.2,0,0.4,0,0.6,0c1.2,0,2.4,0.1,3.6,0.2c0.6,0,1.2,0.2,1.9,0.3l0.9,0.2
		c0.1-0.1,0.5,0.3,0.3-0.2l-0.5,0c-0.6,0-1.1,0-1.7,0c-0.8,0-1.8,0-2.6,0c0.1,0-1.8,0.1-1.4,0.2c-0.5,0-1.3,0-1.3,0.1
		c-0.1,0.1-0.5,0.1-1.9,0.2c-0.5,0-1.4,0-1.6,0c-0.3,0,0.7,0,0.4,0c2,0,4-0.1,5.9-0.2c1,0,2-0.1,2.9,0l1.5,0l0.2,0l0,0
		c0.2-1,0-0.3,0-0.5l-0.1,0l-0.4-0.1L40,46c-1.3-0.6-10.6-0.7-13-0.4l-0.2,0c-1.3,0.1-2.9,0.1-3.9,0.2l-1.5,0.1c0.2,0,0.5,0,0.6,0
		c-0.5,0-1,0-1.2,0c-1.1,0-0.5,0.1,0,0.1c0.3,0-0.1,0,0.4,0.1c-0.3,0-0.5,0-0.9,0c0,0,1.1,0,0.8,0c-0.3,0-0.7,0-1,0
		c0.1,0,1.2,0,1.1,0c-0.2,0-1,0-1,0c0,0,0.3,0,0.5,0c-1.1,0-1.6,0.1-0.7,0.1c-0.3,0-0.8,0-1.2,0h0c0.2,0,0.5,0,0.6,0l-0.6,0l0.1,0
		l0.5,0l-0.4,0c0.1,0,0.2,0,0.3,0c0.5,0,0.9,0,1.2,0C22.6,46.3,24.7,46.1,26.7,46.1"/>
	<path class="st0" d="M28,48.1C28,48.1,27.9,48.1,28,48.1c0.7,0,1.2,0.1,1.8,0.1l0,0c0.5,0,1,0.1,1.5,0.1c0.9,0,1.8,0.1,2.7,0.1
		c0,0,0,0,0.1,0c0.4,0,0.9,0,1.5,0h0.2c0.1,0,0.1,0,0.1,0c0.2,0,0.5,0,0.7,0c1.3,0,2.7,0,4.1-0.1c0.3-0.1,0.8,0.3,0.9-0.3l-1.1,0
		l-2.2,0c-0.6,0-1.2,0-1.8,0c-0.9,0-2,0-2.9,0c0.1,0.1-2,0.1-1.6,0.1c-0.6,0-1.4,0-1.5,0c-0.1,0.1-0.6,0.1-2.1,0.1
		c-0.6,0-1.5,0-1.7,0c-0.3,0,0.8,0,0.4,0c4.5,0,8.7,0,13.2,0c0.2,0,0.5,0,1,0c0-0.2,0.4,0.5,0.2-0.5l-0.4,0c-0.3,0-0.5,0-0.9,0
		c-1.2,0-2.7,0-4.3,0c-3.1,0-6.3-0.3-7.6-0.3l-0.2,0c-1.4-0.1-3.2-0.1-4.4,0c-0.6,0-1.1,0.1-1.7,0.2c0.3,0,0.5,0,0.7,0
		c-0.6,0-1.2,0.1-1.4,0.1c-1.2,0.2-0.5,0.1,0,0.1c0.3,0-0.1,0.1,0.4,0c-0.4,0-0.6,0-1,0.1c0,0,1.2-0.2,0.9-0.1
		c-0.4,0-0.8,0.1-1.2,0.2c0.1,0,1.3-0.2,1.3-0.1c-0.2,0-1.1,0.1-1.1,0.1c0,0,0.4-0.1,0.6-0.1c-1.2,0.2-1.8,0.4-0.7,0.2
		c-0.4,0.1-0.9,0.1-1.3,0.2h0c0.2,0,0.5-0.1,0.7-0.1l-0.7,0.1l0.1,0l0.5-0.1l-0.4,0.1c0.1,0,0.2,0,0.4,0c0.5-0.1,1-0.1,1.3-0.2
		C23.3,48,25.7,48.1,28,48.1"/>
	<path class="st0" d="M32.4,43.6C32.4,43.6,32.5,43.6,32.4,43.6c-0.6,0.1-1.1,0-1.7,0.1l0,0c-0.5,0-0.9,0-1.4,0l-2.6,0.1
		c0,0,0,0-0.1,0c-0.4,0-0.9,0-1.4,0L25,44c-0.1,0-0.1,0-0.1,0c-0.2,0-0.4,0-0.6,0c-1.3,0-2.6,0-3.9,0.1l-1,0
		c-0.1,0.6,0.5,0.2,0.8,0.3l2.1,0c0.6,0,1.2,0,1.8,0c0.8,0,1.9,0,2.8,0c-0.1-0.1,1.9-0.1,1.5-0.1c0.5,0,1.4,0,1.4,0
		c0.1-0.1,0.6-0.1,2-0.1c0.6,0,1.5,0,1.7,0c0.3,0-0.7,0-0.4,0c-4.3,0-8.3,0-12.6,0c-0.2,0-0.5,0-0.9,0c0.1,1,0.8,0.3,1.4,0.5
		c1.2,0,2.6,0,4.1,0c3-0.1,6-0.3,7.3-0.3l0.2,0c1.4-0.1,3-0.1,4.2,0c0.5,0,1.1,0,1.6,0.1c-0.2,0-0.5-0.1-0.7-0.1
		c0.5,0,1.1,0.1,1.3,0.1c1.2,0.2,0.5,0,0.1-0.1c-0.3,0,0.1,0-0.4-0.1c0.4,0,0.5,0,0.9,0.1c0,0-1.1-0.1-0.9-0.1
		c0.4,0,0.7,0.1,1.1,0.2c-0.1-0.1-1.3-0.2-1.2-0.2c0.2,0,1,0.1,1.1,0.1c0,0-0.3-0.1-0.5-0.1c1.1,0.2,1.7,0.3,0.7,0.1
		c0.4,0.1,0.9,0.2,1.2,0.2v0c-0.2,0-0.5-0.1-0.7-0.1l0.6,0.1l-0.1,0l-0.5-0.1l0.4,0.1c-0.1,0-0.2-0.1-0.4-0.1
		c-0.5-0.1-1-0.2-1.3-0.3C36.9,43.6,34.6,43.6,32.4,43.6"/>
	<path class="st0" d="M32.4,41C32.4,41,32.5,41,32.4,41c-0.6,0-1.1,0-1.7,0l0,0c-0.4,0-0.9,0-1.4,0l-2.6,0.1c0,0,0,0-0.1,0
		c-0.4,0-0.9,0-1.4,0l-0.2,0c-0.1,0-0.1,0-0.1,0c-0.2,0-0.4,0-0.6,0c-1.3,0-2.6,0-3.9,0l-1,0c-0.1,0.5,0.5,0.1,0.8,0.2l2.1,0
		c0.6,0,1.2,0,1.8,0c0.8,0,1.9,0,2.8,0c-0.1,0,1.9-0.1,1.5-0.1c0.5,0,1.4,0,1.4,0c0.1,0,0.5-0.1,2-0.1c0.6,0,1.4,0,1.6,0
		c0.3,0-0.7,0-0.4,0c-4.2,0-8.3,0-12.6,0c-0.2,0-0.5,0-0.9,0c0.1,0.7,0.8,0.2,1.3,0.4c1.2,0,2.6,0,4.1,0c3,0,6-0.2,7.3-0.2l0.2,0
		c1.4,0,3,0,4.2,0c0.5,0,1.1,0,1.6,0c-0.2,0-0.5,0-0.7-0.1c0.5,0,1.1,0.1,1.3,0.1c1.2,0.1,0.5,0,0.1-0.1c-0.3,0,0.1,0-0.4-0.1
		c0.4,0,0.6,0,0.9,0.1c0,0-1.1-0.1-0.9-0.1c0.4,0,0.7,0,1.1,0.1c-0.1,0-1.3-0.1-1.2-0.1c0.2,0,1,0.1,1.1,0.1c0,0-0.4,0-0.5-0.1
		c1.1,0.1,1.7,0.1,0.7,0c0.4,0,0.9,0.1,1.2,0.1h0c-0.2,0-0.5-0.1-0.7-0.1l0.6,0.1l-0.1,0l-0.5-0.1l0.4,0c-0.1,0-0.2,0-0.4-0.1
		c-0.5-0.1-1-0.1-1.3-0.2C36.9,41,34.6,41,32.4,41"/>
	<path class="st0" d="M28.9,8.9C28.9,8.9,28.9,8.9,28.9,8.9c0-0.1,0-0.1,0-0.2l0,0l0-0.1l0-0.3l0,0l0-0.1l0,0l0,0l0-0.1
		c-0.1-0.1-0.1-0.9-0.3-0.5l0.2,0c0,0.1,0.4,0,0.2-0.2c0,0-0.2-0.1-0.2,0c0,0-0.1-0.1-0.1-0.1c0,0-0.1,0-0.2-0.2c0-0.1,0-0.1,0-0.2
		c0,0,0,0.1,0,0.1l0.1,0.3c0.2,0.4,0.2,0.2,0.2,0.3c0.2-0.1,0.2-0.2,0.1-0.3c0,0,0,0-0.1,0l-0.1,0l0,0c0.2,0.7-0.1,0.3-0.1,0.3
		c0-0.1-0.2,0.2-0.1,0.1c0.1,0,0.2,1,0.1,1.3v0c0,0.1,0,0.3,0,0.4l0,0.2l0-0.1c0,0.1,0,0.1,0,0.1c0,0.1,0,0.1,0.1,0c0,0,0,0,0.1,0
		l0,0.1c0,0,0-0.1,0-0.1l0,0.1c0,0,0-0.1,0-0.1c0,0,0,0.1,0,0.1c0,0,0,0,0-0.1c0,0.1,0,0.2,0.1,0.1l0,0.1l0-0.1l0,0.1l0,0l0-0.1l0,0
		l0,0c0,0,0-0.1,0.1-0.1C28.9,9.4,28.9,9.1,28.9,8.9"/>
	<path class="st0" d="M25.6,19.5c0.1,0.9,0,2.2,0.3,3.1c0.1,0.1-0.1,0.4-0.1,0.5c0.5,0.6,3.1,0.3,3.8,0.4c0.8,0.1,2.3,0.4,3,0.1
		c0.9-0.3,0.6-1,0.6-1.9c0.1-0.5,0.4-1.4,0.2-1.9c-0.3-0.8-0.7-0.5-1.9-0.6c-1.4-0.1-4.7-0.8-6.1,0L25.6,19.5z"/>
	<path class="st0" d="M26.9,36.6h-2.2h-1.2c-0.2,0-0.6,0.2-0.8,0.2c-0.3-0.1-0.5-0.4-0.7-0.4c-0.9-0.3-1.8-0.3-2.8-0.3
		c-1.1,0-1.2,0.2-1.6-0.9c-0.5-1.5,0.3-2.4-1.4-2.7c-0.9-0.2-2.2,0-3.1,0.1c-1.4,0.2-1.5,1.2-2.6,1.6c-1.1,0.5-2.3,0-3.5,0.3
		c-0.7,0.2-1.8,0.3-1.6,1.3c3.1-0.1,6.7-0.9,9.8-0.4c1.1,0.2,1.4,0.3,1.8,1.6c0.2,0.7-0.2,0.9,0.3,1.3c0.3,0.2,0.9-0.3,1.3-0.2
		c0.9,0.5,0.2,3.6,0.2,4.8c0,1.1-1.5,0.9-1.6,2.1c1.4,2.8,1.7,3.9,2.1,4.9c0.5-0.8,0.2-2.6,0.3-3.6c0-1.1,0-1.2-0.1-2.2
		c0-0.6,0.2-0.9,0.2-1.3c0.1-0.7-0.2-1.2-0.2-1.8c-0.1-1.7,0.5-1.1,1.8-0.7c2.3,0.5,5,0.2,7.3,0.2h5.2c0.9,0,1.8-0.1,2.8,0
		c0.6,0.1,2.7,0,3.2,0.3c1,0.7,0.4,3.3,0.6,4.5c0.1,0.4,0.4,0.8,0.4,1.1c0,0.3,0.6,2.1,0.6,3.4c0.1-1.5-0.4-3.4,0.8-4
		c1.3-0.6,0.2-2.1-0.6-3.4c-1.1-1.7-1.7-4,0.9-4.3c1.2-0.2,2.1,0.5,2.4-0.9c0.2-0.8-0.4-1.7-0.2-2.6c0.3-1.2,1.3-1.1,2.4-1.2
		c0.5,0,2.5,0.2,1.9-0.7c-0.3-0.3-4.5-0.6-5-0.1c-0.9,0.9,0,2.9-1.3,3.6c-1.3,0.8-3.5-0.6-4.7,0.1c-0.9,0.4-3,0.2-4.1,0.1
		c-0.2,1.6-2.9,1.6-4.3,1.7c-1,0.1-3,0.4-2.8-1.2L26.9,36.6z"/>
	<polygon class="st0" points="44.3,32.4 44.3,32.5 45.3,32.5 45.3,32.4 	"/>
	<path class="st0" d="M48.4,32.6c1.2-0.1,0.4,1.3,0.9,1.8c0.5,0.6,0.9,0.4,1.7,0.5c1.7,0.1,2.5-0.5,2.8,2.2c0.3,3,0.3,7.5-0.1,7.5
		c-0.3-1.4-0.5-4.9-0.6-6.5c-0.1-2.2,0-1.8-1.5-2.3c-1-0.3-1.6-0.9-2.5-0.5c0-0.6,0-1.8-0.3-2.5L48.4,32.6z"/>
	<path class="st0" d="M9.5,35.4C8.6,35,8,35.7,7,35.9c-1.5,0.5-2.1,0.1-2.2,2.3c-0.1,1.6,0.1,3,0.1,4.4c0,4.9-1,0.9-0.4-5.4
		c0.3-2.7,3.1-2.9,3.1-2.2C8.2,35,9.5,34.8,9.5,35.4"/>
	<path class="st0" d="M20.4,26.4c0,0.3,0.1,0.3,0.2,0.6c0.3,0.1,0.1,0.3,0.5,0.3c0.7,0,1.8-0.2,2.4-0.2c1,0,2-0.1,3-0.1
		c1.3,0,2.6-0.1,3.9-0.1c1.1,0,2.2,0.2,3.2,0.3c1,0.1,2.1,0,3.1,0c0.5,0,2.1,0.1,2.2-0.2c0-0.1-0.5-0.6-0.5-0.6
		c0-0.3-0.5-0.2-0.8-0.2c-0.7,0-1.4,0.1-2.1,0.1c-1.8,0-3.6,0-5.5,0c-3,0-6,0.2-9.1,0.3L20.4,26.4z"/>
	<path class="st0" d="M25.4,24.8c0,0.3,0.1,0.6,0.1,0.9c0.1,0.1,0.1,0.3,0.2,0.3c0.3,0,0.9-0.2,1.2-0.2c0.5,0,1-0.1,1.4-0.1
		c0.6,0,1.3-0.1,1.9-0.1c0.5,0,1.1,0.2,1.6,0.3c0.5,0,1,0,1.5,0c0.2,0,1,0.1,1.1-0.2c0-0.1-0.3-0.6-0.3-0.6c0-0.3-0.3-0.2-0.4-0.2
		c-0.3,0-0.7,0.1-1,0.1c-0.9,0-1.8,0-2.7,0c-1.5,0-2.9,0.2-4.4,0.3L25.4,24.8z"/>
	<path class="st0" d="M20.9,24.9c0.3,0,0.5,0,0.8,0c0,0,0.2,0,0.2,0.1c0,0.1-0.2,0.2-0.2,0.3c0,0.1,0.2,0.2,0.2,0.4
		c0,0.2,0.6,0.5,0.6,0.7c0,0.1-0.3,0.1-0.3,0.2c0,0.1,0.2,0.3,0.2,0.4c0,0.1-0.6,0.3-0.9,0.3c0,0-0.3-0.1-0.4-0.1
		C20.9,27.1,21,27,21,27c0-0.1-0.1-0.1-0.1-0.2c0-0.2,0-0.4,0-0.7c0-0.4,0-0.4,0.1-0.7L20.9,24.9z"/>
	<path class="st0" d="M38.5,24.7c-0.3,0-0.5,0-0.8,0c0,0-0.2,0-0.2,0.1c0,0.1,0.2,0.2,0.2,0.3c0,0.1-0.2,0.3-0.2,0.4
		c0,0.2-0.6,0.5-0.6,0.7c0,0.1,0.3,0.1,0.3,0.2c0,0.1-0.2,0.3-0.2,0.4c0,0.1,0.6,0.3,0.9,0.3c0,0,0.3-0.1,0.4-0.1
		c0.2,0,0.1-0.1,0.1-0.1c0-0.1,0.1-0.2,0.1-0.3c0-0.2,0-0.5,0-0.7c0-0.4,0-0.4-0.1-0.8L38.5,24.7z"/>
</g>
</svg>
